<svg width="390" height="844" viewBox="0 0 390 844" fill="none" xmlns="http://www.w3.org/2000/svg">
<g clip-path="url(#clip0_198_1238)">
<path d="M360 0H30C13.4315 0 0 13.4315 0 30V814C0 830.569 13.4315 844 30 844H360C376.569 844 390 830.569 390 814V30C390 13.4315 376.569 0 360 0Z" fill="url(#paint0_linear_198_1238)"/>
<path d="M51.5 509C49.567 509 48 507.433 48 505.5C48 503.567 49.567 502 51.5 502C53.433 502 55 503.567 55 505.5C55 507.433 53.433 509 51.5 509Z" fill="#E77E42"/>
<path d="M335.5 92C337.433 92 339 90.433 339 88.5C339 86.567 337.433 85 335.5 85C333.567 85 332 86.567 332 88.5C332 90.433 333.567 92 335.5 92Z" fill="#1BEAFF"/>
<path d="M77.5 300C75.567 300 74 298.433 74 296.5C74 294.567 75.567 293 77.5 293C79.433 293 81 294.567 81 296.5C81 298.433 79.433 300 77.5 300Z" fill="#E77E42"/>
<path d="M311.5 700C313.433 700 315 698.433 315 696.5C315 694.567 313.433 693 311.5 693C309.567 693 308 694.567 308 696.5C308 698.433 309.567 700 311.5 700Z" fill="#E77E42"/>
<path d="M192.5 83C193.881 83 195 81.8807 195 80.5C195 79.1193 193.881 78 192.5 78C191.119 78 190 79.1193 190 80.5C190 81.8807 191.119 83 192.5 83Z" fill="white"/>
<path d="M307.5 278C306.119 278 305 276.881 305 275.5C305 274.119 306.119 273 307.5 273C308.881 273 310 274.119 310 275.5C310 276.881 308.881 278 307.5 278Z" fill="white"/>
<path d="M81.5 678C82.8807 678 84 676.881 84 675.5C84 674.119 82.8807 673 81.5 673C80.1193 673 79 674.119 79 675.5C79 676.881 80.1193 678 81.5 678Z" fill="white"/>
<path d="M271.5 75C272.881 75 274 73.8807 274 72.5C274 71.1193 272.881 70 271.5 70C270.119 70 269 71.1193 269 72.5C269 73.8807 270.119 75 271.5 75Z" fill="white"/>
<path d="M123.5 258C122.119 258 121 256.881 121 255.5C121 254.119 122.119 253 123.5 253C124.881 253 126 254.119 126 255.5C126 256.881 124.881 258 123.5 258Z" fill="white"/>
<path d="M301.5 172C302.881 172 304 170.881 304 169.5C304 168.119 302.881 167 301.5 167C300.119 167 299 168.119 299 169.5C299 170.881 300.119 172 301.5 172Z" fill="white"/>
<path d="M29.5 346C28.1193 346 27 344.881 27 343.5C27 342.119 28.1193 341 29.5 341C30.8807 341 32 342.119 32 343.5C32 344.881 30.8807 346 29.5 346Z" fill="white"/>
<path d="M226.5 157C228.433 157 230 155.433 230 153.5C230 151.567 228.433 150 226.5 150C224.567 150 223 151.567 223 153.5C223 155.433 224.567 157 226.5 157Z" fill="#E77E42"/>
<path d="M148.5 646C146.567 646 145 644.433 145 642.5C145 640.567 146.567 639 148.5 639C150.433 639 152 640.567 152 642.5C152 644.433 150.433 646 148.5 646Z" fill="#E77E42"/>
<path d="M42.5 185C44.433 185 46 183.433 46 181.5C46 179.567 44.433 178 42.5 178C40.567 178 39 179.567 39 181.5C39 183.433 40.567 185 42.5 185Z" fill="#1BEAFF"/>
<path d="M36.5 775C38.433 775 40 773.433 40 771.5C40 769.567 38.433 768 36.5 768C34.567 768 33 769.567 33 771.5C33 773.433 34.567 775 36.5 775Z" fill="#1BEAFF"/>
<path d="M225.5 238C226.881 238 228 236.881 228 235.5C228 234.119 226.881 233 225.5 233C224.119 233 223 234.119 223 235.5C223 236.881 224.119 238 225.5 238Z" fill="#1BEAFF"/>
<path d="M119 83C119.552 83 120 82.5523 120 82C120 81.4477 119.552 81 119 81C118.448 81 118 81.4477 118 82C118 82.5523 118.448 83 119 83Z" fill="white"/>
<path d="M298 345C297.448 345 297 344.552 297 344C297 343.448 297.448 343 298 343C298.552 343 299 343.448 299 344C299 344.552 298.552 345 298 345Z" fill="white"/>
<path d="M91 745C91.5523 745 92 744.552 92 744C92 743.448 91.5523 743 91 743C90.4477 743 90 743.448 90 744C90 744.552 90.4477 745 91 745Z" fill="white"/>
<path d="M212 22C212.552 22 213 21.5523 213 21C213 20.4477 212.552 20 212 20C211.448 20 211 20.4477 211 21C211 21.5523 211.448 22 212 22Z" fill="white"/>
<path d="M371 422C370.448 422 370 421.552 370 421C370 420.448 370.448 420 371 420C371.552 420 372 420.448 372 421C372 421.552 371.552 422 371 422Z" fill="white"/>
<path d="M300 738C300.552 738 301 737.552 301 737C301 736.448 300.552 736 300 736C299.448 736 299 736.448 299 737C299 737.552 299.448 738 300 738Z" fill="white"/>
<path d="M362 372C361.448 372 361 371.552 361 371C361 370.448 361.448 370 362 370C362.552 370 363 370.448 363 371C363 371.552 362.552 372 362 372Z" fill="white"/>
<path d="M255 604C254.448 604 254 603.552 254 603C254 602.448 254.448 602 255 602C255.552 602 256 602.448 256 603C256 603.552 255.552 604 255 604Z" fill="white"/>
<path d="M163 243C163.552 243 164 242.552 164 242C164 241.448 163.552 241 163 241C162.448 241 162 241.448 162 242C162 242.552 162.448 243 163 243Z" fill="white"/>
<path d="M226 643C225.448 643 225 642.552 225 642C225 641.448 225.448 641 226 641C226.552 641 227 641.448 227 642C227 642.552 226.552 643 226 643Z" fill="white"/>
<path d="M178 232C178.552 232 179 231.552 179 231C179 230.448 178.552 230 178 230C177.448 230 177 230.448 177 231C177 231.552 177.448 232 178 232Z" fill="white"/>
<path d="M211 632C210.448 632 210 631.552 210 631C210 630.448 210.448 630 211 630C211.552 630 212 630.448 212 631C212 631.552 211.552 632 211 632Z" fill="white"/>
<path d="M77 148C77.5523 148 78 147.552 78 147C78 146.448 77.5523 146 77 146C76.4477 146 76 146.448 76 147C76 147.552 76.4477 148 77 148Z" fill="white"/>
<path d="M356 548C355.448 548 355 547.552 355 547C355 546.448 355.448 546 356 546C356.552 546 357 546.448 357 547C357 547.552 356.552 548 356 548Z" fill="white"/>
<path d="M81 533C80.4477 533 80 532.552 80 532C80 531.448 80.4477 531 81 531C81.5523 531 82 531.448 82 532C82 532.552 81.5523 533 81 533Z" fill="white"/>
<path d="M9 587C8.44772 587 8 586.552 8 586C8 585.448 8.44772 585 9 585C9.55228 585 10 585.448 10 586C10 586.552 9.55228 587 9 587Z" fill="white"/>
<path d="M168 279C167.448 279 167 278.552 167 278C167 277.448 167.448 277 168 277C168.552 277 169 277.448 169 278C169 278.552 168.552 279 168 279Z" fill="white"/>
<path d="M246 202C246.552 202 247 201.552 247 201C247 200.448 246.552 200 246 200C245.448 200 245 200.448 245 201C245 201.552 245.448 202 246 202Z" fill="white"/>
<path d="M143 602C142.448 602 142 601.552 142 601C142 600.448 142.448 600 143 600C143.552 600 144 600.448 144 601C144 601.552 143.552 602 143 602Z" fill="white"/>
<path d="M136 401C135.448 401 135 400.552 135 400C135 399.448 135.448 399 136 399C136.552 399 137 399.448 137 400C137 400.552 136.552 401 136 401Z" fill="white"/>
<path d="M167 397C166.448 397 166 396.552 166 396C166 395.448 166.448 395 167 395C167.552 395 168 395.448 168 396C168 396.552 167.552 397 167 397Z" fill="white"/>
<path d="M222 797C222.552 797 223 796.552 223 796C223 795.448 222.552 795 222 795C221.448 795 221 795.448 221 796C221 796.552 221.448 797 222 797Z" fill="white"/>
<path d="M267 399C266.448 399 266 398.552 266 398C266 397.448 266.448 397 267 397C267.552 397 268 397.448 268 398C268 398.552 267.552 399 267 399Z" fill="white"/>
<path d="M377 339C376.448 339 376 338.552 376 338C376 337.448 376.448 337 377 337C377.552 337 378 337.448 378 338C378 338.552 377.552 339 377 339Z" fill="white"/>
<path d="M387 321C386.448 321 386 320.552 386 320C386 319.448 386.448 319 387 319C387.552 319 388 319.448 388 320C388 320.552 387.552 321 387 321Z" fill="white"/>
<path d="M135 350C134.448 350 134 349.552 134 349C134 348.448 134.448 348 135 348C135.552 348 136 348.448 136 349C136 349.552 135.552 350 135 350Z" fill="white"/>
<path d="M234 352C233.448 352 233 351.552 233 351C233 350.448 233.448 350 234 350C234.552 350 235 350.448 235 351C235 351.552 234.552 352 234 352Z" fill="white"/>
<path d="M79 66C79.5523 66 80 65.5523 80 65C80 64.4477 79.5523 64 79 64C78.4477 64 78 64.4477 78 65C78 65.5523 78.4477 66 79 66Z" fill="white"/>
<path d="M77 206C77.5523 206 78 205.552 78 205C78 204.448 77.5523 204 77 204C76.4477 204 76 204.448 76 205C76 205.552 76.4477 206 77 206Z" fill="white"/>
<path d="M312 606C311.448 606 311 605.552 311 605C311 604.448 311.448 604 312 604C312.552 604 313 604.448 313 605C313 605.552 312.552 606 312 606Z" fill="white"/>
<path d="M250 418C249.448 418 249 417.552 249 417C249 416.448 249.448 416 250 416C250.552 416 251 416.448 251 417C251 417.552 250.552 418 250 418Z" fill="white"/>
<path d="M90 797C90.5523 797 91 796.552 91 796C91 795.448 90.5523 795 90 795C89.4477 795 89 795.448 89 796C89 796.552 89.4477 797 90 797Z" fill="white"/>
<path d="M87 723C87.5523 723 88 722.552 88 722C88 721.448 87.5523 721 87 721C86.4477 721 86 721.448 86 722C86 722.552 86.4477 723 87 723Z" fill="white"/>
<path d="M330 296C329.448 296 329 295.552 329 295C329 294.448 329.448 294 330 294C330.552 294 331 294.448 331 295C331 295.552 330.552 296 330 296Z" fill="white"/>
<path d="M230 56C230.552 56 231 55.5523 231 55C231 54.4477 230.552 54 230 54C229.448 54 229 54.4477 229 55C229 55.5523 229.448 56 230 56Z" fill="white"/>
<path d="M270 120C270.552 120 271 119.552 271 119C271 118.448 270.552 118 270 118C269.448 118 269 118.448 269 119C269 119.552 269.448 120 270 120Z" fill="white"/>
<path d="M140 527C139.448 527 139 526.552 139 526C139 525.448 139.448 525 140 525C140.552 525 141 525.448 141 526C141 526.552 140.552 527 140 527Z" fill="white"/>
<path d="M125 303C124.448 303 124 302.552 124 302C124 301.448 124.448 301 125 301C125.552 301 126 301.448 126 302C126 302.552 125.552 303 125 303Z" fill="white"/>
<path d="M264 703C264.552 703 265 702.552 265 702C265 701.448 264.552 701 264 701C263.448 701 263 701.448 263 702C263 702.552 263.448 703 264 703Z" fill="white"/>
<path d="M303.5 221C304.881 221 306 219.881 306 218.5C306 217.119 304.881 216 303.5 216C302.119 216 301 217.119 301 218.5C301 219.881 302.119 221 303.5 221Z" fill="white"/>
<path d="M66.5 617C65.1193 617 64 615.881 64 614.5C64 613.119 65.1193 612 66.5 612C67.8807 612 69 613.119 69 614.5C69 615.881 67.8807 617 66.5 617Z" fill="white"/>
<path d="M158 122C158.552 122 159 121.552 159 121C159 120.448 158.552 120 158 120C157.448 120 157 120.448 157 121C157 121.552 157.448 122 158 122Z" fill="white"/>
<path d="M231 522C230.448 522 230 521.552 230 521C230 520.448 230.448 520 231 520C231.552 520 232 520.448 232 521C232 521.552 231.552 522 231 522Z" fill="white"/>
<path d="M227 289C226.448 289 226 288.552 226 288C226 287.448 226.448 287 227 287C227.552 287 228 287.448 228 288C228 288.552 227.552 289 227 289Z" fill="white"/>
<path d="M199 164C199.552 164 200 163.552 200 163C200 162.448 199.552 162 199 162C198.448 162 198 162.448 198 163C198 163.552 198.448 164 199 164Z" fill="white"/>
<path d="M196 564C195.448 564 195 563.552 195 563C195 562.448 195.448 562 196 562C196.552 562 197 562.448 197 563C197 563.552 196.552 564 196 564Z" fill="white"/>
<path d="M202 347C201.448 347 201 346.552 201 346C201 345.448 201.448 345 202 345C202.552 345 203 345.448 203 346C203 346.552 202.552 347 202 347Z" fill="white"/>
<path d="M193 747C193.552 747 194 746.552 194 746C194 745.448 193.552 745 193 745C192.448 745 192 745.448 192 746C192 746.552 192.448 747 193 747Z" fill="white"/>
<path d="M353 37C353.552 37 354 36.5523 354 36C354 35.4477 353.552 35 353 35C352.448 35 352 35.4477 352 36C352 36.5523 352.448 37 353 37Z" fill="white"/>
<path d="M375 108C375.552 108 376 107.552 376 107C376 106.448 375.552 106 375 106C374.448 106 374 106.448 374 107C374 107.552 374.448 108 375 108Z" fill="white"/>
<path d="M363 691C363.552 691 364 690.552 364 690C364 689.448 363.552 689 363 689C362.448 689 362 689.448 362 690C362 690.552 362.448 691 363 691Z" fill="white"/>
<path d="M235 489C234.448 489 234 488.552 234 488C234 487.448 234.448 487 235 487C235.552 487 236 487.448 236 488C236 488.552 235.552 489 235 489Z" fill="white"/>
<path d="M305 79C305.552 79 306 78.5523 306 78C306 77.4477 305.552 77 305 77C304.448 77 304 77.4477 304 78C304 78.5523 304.448 79 305 79Z" fill="white"/>
<path d="M56 245C55.4477 245 55 244.552 55 244C55 243.448 55.4477 243 56 243C56.5523 243 57 243.448 57 244C57 244.552 56.5523 245 56 245Z" fill="white"/>
<path d="M339 795C339.552 795 340 794.552 340 794C340 793.448 339.552 793 339 793C338.448 793 338 793.448 338 794C338 794.552 338.448 795 339 795Z" fill="white"/>
<path d="M324 185C324.552 185 325 184.552 325 184C325 183.448 324.552 183 324 183C323.448 183 323 183.448 323 184C323 184.552 323.448 185 324 185Z" fill="white"/>
<path d="M157 49C157.552 49 158 48.5523 158 48C158 47.4477 157.552 47 157 47C156.448 47 156 47.4477 156 48C156 48.5523 156.448 49 157 49Z" fill="white"/>
<path d="M147 167C147.552 167 148 166.552 148 166C148 165.448 147.552 165 147 165C146.448 165 146 165.448 146 166C146 166.552 146.448 167 147 167Z" fill="white"/>
<path d="M242 567C241.448 567 241 566.552 241 566C241 565.448 241.448 565 242 565C242.552 565 243 565.448 243 566C243 566.552 242.552 567 242 567Z" fill="white"/>
<path d="M292 24C292.552 24 293 23.5523 293 23C293 22.4477 292.552 22 292 22C291.448 22 291 22.4477 291 23C291 23.5523 291.448 24 292 24Z" fill="white"/>
<path d="M340 150C340.552 150 341 149.552 341 149C341 148.448 340.552 148 340 148C339.448 148 339 148.448 339 149C339 149.552 339.448 150 340 150Z" fill="white"/>
<path d="M100 576C99.4477 576 99 575.552 99 575C99 574.448 99.4477 574 100 574C100.552 574 101 574.448 101 575C101 575.552 100.552 576 100 576Z" fill="white"/>
<path d="M55 333C54.4477 333 54 332.552 54 332C54 331.448 54.4477 331 55 331C55.5523 331 56 331.448 56 332C56 332.552 55.5523 333 55 333Z" fill="white"/>
</g>
<defs>
<linearGradient id="paint0_linear_198_1238" x1="195" y1="0" x2="195" y2="844" gradientUnits="userSpaceOnUse">
<stop stop-color="#0D6FCA"/>
<stop offset="0.5" stop-color="#4B0384"/>
<stop offset="1" stop-color="#4B0384"/>
</linearGradient>
<clipPath id="clip0_198_1238">
<rect width="390" height="844" fill="white"/>
</clipPath>
</defs>
</svg>
