<svg width="390" height="856" viewBox="0 0 390 856" fill="none" xmlns="http://www.w3.org/2000/svg">
<g clip-path="url(#clip0_198_1580)">
<mask id="mask0_198_1580" style="mask-type:luminance" maskUnits="userSpaceOnUse" x="0" y="0" width="390" height="856">
<path d="M360 0H30C13.4315 0 0 13.4315 0 30V826C0 842.569 13.4315 856 30 856H360C376.569 856 390 842.569 390 826V30C390 13.4315 376.569 0 360 0Z" fill="white"/>
</mask>
<g mask="url(#mask0_198_1580)">
<path d="M360 0H30C13.4315 0 0 13.4315 0 30V826C0 842.569 13.4315 856 30 856H360C376.569 856 390 842.569 390 826V30C390 13.4315 376.569 0 360 0Z" fill="#FEF5EC"/>
<path d="M35.5 183C100.946 183 154 129.946 154 64.5C154 -0.94574 100.946 -54 35.5 -54C-29.9457 -54 -83 -0.94574 -83 64.5C-83 129.946 -29.9457 183 35.5 183Z" stroke="black" stroke-opacity="0.2" stroke-width="2"/>
<path d="M35.5 269C148.442 269 240 177.442 240 64.5C240 -48.4422 148.442 -140 35.5 -140C-77.4422 -140 -169 -48.4422 -169 64.5C-169 177.442 -77.4422 269 35.5 269Z" stroke="black" stroke-opacity="0.15" stroke-width="2"/>
<path d="M35.5 359C198.148 359 330 227.148 330 64.5C330 -98.1479 198.148 -230 35.5 -230C-127.148 -230 -259 -98.1479 -259 64.5C-259 227.148 -127.148 359 35.5 359Z" stroke="#14181F" stroke-opacity="0.15" stroke-width="2"/>
<path d="M51.5 509C49.567 509 48 507.433 48 505.5C48 503.567 49.567 502 51.5 502C53.433 502 55 503.567 55 505.5C55 507.433 53.433 509 51.5 509Z" fill="#E77E42"/>
<path d="M335.5 92C337.433 92 339 90.433 339 88.5C339 86.567 337.433 85 335.5 85C333.567 85 332 86.567 332 88.5C332 90.433 333.567 92 335.5 92Z" fill="#1BEAFF"/>
<path d="M77.5 300C75.567 300 74 298.433 74 296.5C74 294.567 75.567 293 77.5 293C79.433 293 81 294.567 81 296.5C81 298.433 79.433 300 77.5 300Z" fill="#E77E42"/>
<path d="M311.5 700C313.433 700 315 698.433 315 696.5C315 694.567 313.433 693 311.5 693C309.567 693 308 694.567 308 696.5C308 698.433 309.567 700 311.5 700Z" fill="#E77E42"/>
<path d="M192.5 83C193.881 83 195 81.8807 195 80.5C195 79.1193 193.881 78 192.5 78C191.119 78 190 79.1193 190 80.5C190 81.8807 191.119 83 192.5 83Z" fill="white"/>
<path d="M307.5 278C306.119 278 305 276.881 305 275.5C305 274.119 306.119 273 307.5 273C308.881 273 310 274.119 310 275.5C310 276.881 308.881 278 307.5 278Z" fill="white"/>
<path d="M81.5 678C82.8807 678 84 676.881 84 675.5C84 674.119 82.8807 673 81.5 673C80.1193 673 79 674.119 79 675.5C79 676.881 80.1193 678 81.5 678Z" fill="white"/>
<path d="M271.5 75C272.881 75 274 73.8807 274 72.5C274 71.1193 272.881 70 271.5 70C270.119 70 269 71.1193 269 72.5C269 73.8807 270.119 75 271.5 75Z" fill="white"/>
<path d="M123.5 258C122.119 258 121 256.881 121 255.5C121 254.119 122.119 253 123.5 253C124.881 253 126 254.119 126 255.5C126 256.881 124.881 258 123.5 258Z" fill="white"/>
<path d="M301.5 172C302.881 172 304 170.881 304 169.5C304 168.119 302.881 167 301.5 167C300.119 167 299 168.119 299 169.5C299 170.881 300.119 172 301.5 172Z" fill="white"/>
<path d="M29.5 346C28.1193 346 27 344.881 27 343.5C27 342.119 28.1193 341 29.5 341C30.8807 341 32 342.119 32 343.5C32 344.881 30.8807 346 29.5 346Z" fill="white"/>
<path d="M226.5 157C228.433 157 230 155.433 230 153.5C230 151.567 228.433 150 226.5 150C224.567 150 223 151.567 223 153.5C223 155.433 224.567 157 226.5 157Z" fill="#E77E42"/>
<path d="M148.5 646C146.567 646 145 644.433 145 642.5C145 640.567 146.567 639 148.5 639C150.433 639 152 640.567 152 642.5C152 644.433 150.433 646 148.5 646Z" fill="#E77E42"/>
<path d="M42.5 185C44.433 185 46 183.433 46 181.5C46 179.567 44.433 178 42.5 178C40.567 178 39 179.567 39 181.5C39 183.433 40.567 185 42.5 185Z" fill="#1BEAFF"/>
<path d="M36.5 775C38.433 775 40 773.433 40 771.5C40 769.567 38.433 768 36.5 768C34.567 768 33 769.567 33 771.5C33 773.433 34.567 775 36.5 775Z" fill="#1BEAFF"/>
<path d="M225.5 238C226.881 238 228 236.881 228 235.5C228 234.119 226.881 233 225.5 233C224.119 233 223 234.119 223 235.5C223 236.881 224.119 238 225.5 238Z" fill="#1BEAFF"/>
<path d="M119 83C119.552 83 120 82.5523 120 82C120 81.4477 119.552 81 119 81C118.448 81 118 81.4477 118 82C118 82.5523 118.448 83 119 83Z" fill="white"/>
<path d="M298 345C297.448 345 297 344.552 297 344C297 343.448 297.448 343 298 343C298.552 343 299 343.448 299 344C299 344.552 298.552 345 298 345Z" fill="white"/>
<path d="M91 745C91.5523 745 92 744.552 92 744C92 743.448 91.5523 743 91 743C90.4477 743 90 743.448 90 744C90 744.552 90.4477 745 91 745Z" fill="white"/>
<path d="M212 22C212.552 22 213 21.5523 213 21C213 20.4477 212.552 20 212 20C211.448 20 211 20.4477 211 21C211 21.5523 211.448 22 212 22Z" fill="white"/>
<path d="M371 422C370.448 422 370 421.552 370 421C370 420.448 370.448 420 371 420C371.552 420 372 420.448 372 421C372 421.552 371.552 422 371 422Z" fill="white"/>
<path d="M300 738C300.552 738 301 737.552 301 737C301 736.448 300.552 736 300 736C299.448 736 299 736.448 299 737C299 737.552 299.448 738 300 738Z" fill="white"/>
<path d="M362 372C361.448 372 361 371.552 361 371C361 370.448 361.448 370 362 370C362.552 370 363 370.448 363 371C363 371.552 362.552 372 362 372Z" fill="white"/>
<path d="M255 604C254.448 604 254 603.552 254 603C254 602.448 254.448 602 255 602C255.552 602 256 602.448 256 603C256 603.552 255.552 604 255 604Z" fill="white"/>
<path d="M163 243C163.552 243 164 242.552 164 242C164 241.448 163.552 241 163 241C162.448 241 162 241.448 162 242C162 242.552 162.448 243 163 243Z" fill="white"/>
<path d="M226 643C225.448 643 225 642.552 225 642C225 641.448 225.448 641 226 641C226.552 641 227 641.448 227 642C227 642.552 226.552 643 226 643Z" fill="white"/>
<path d="M178 232C178.552 232 179 231.552 179 231C179 230.448 178.552 230 178 230C177.448 230 177 230.448 177 231C177 231.552 177.448 232 178 232Z" fill="white"/>
<path d="M211 632C210.448 632 210 631.552 210 631C210 630.448 210.448 630 211 630C211.552 630 212 630.448 212 631C212 631.552 211.552 632 211 632Z" fill="white"/>
<path d="M77 148C77.5523 148 78 147.552 78 147C78 146.448 77.5523 146 77 146C76.4477 146 76 146.448 76 147C76 147.552 76.4477 148 77 148Z" fill="white"/>
<path d="M356 548C355.448 548 355 547.552 355 547C355 546.448 355.448 546 356 546C356.552 546 357 546.448 357 547C357 547.552 356.552 548 356 548Z" fill="white"/>
<path d="M81 533C80.4477 533 80 532.552 80 532C80 531.448 80.4477 531 81 531C81.5523 531 82 531.448 82 532C82 532.552 81.5523 533 81 533Z" fill="white"/>
<path d="M9 587C8.44772 587 8 586.552 8 586C8 585.448 8.44772 585 9 585C9.55228 585 10 585.448 10 586C10 586.552 9.55228 587 9 587Z" fill="white"/>
<path d="M168 279C167.448 279 167 278.552 167 278C167 277.448 167.448 277 168 277C168.552 277 169 277.448 169 278C169 278.552 168.552 279 168 279Z" fill="white"/>
<path d="M246 202C246.552 202 247 201.552 247 201C247 200.448 246.552 200 246 200C245.448 200 245 200.448 245 201C245 201.552 245.448 202 246 202Z" fill="white"/>
<path d="M143 602C142.448 602 142 601.552 142 601C142 600.448 142.448 600 143 600C143.552 600 144 600.448 144 601C144 601.552 143.552 602 143 602Z" fill="white"/>
<path d="M136 401C135.448 401 135 400.552 135 400C135 399.448 135.448 399 136 399C136.552 399 137 399.448 137 400C137 400.552 136.552 401 136 401Z" fill="white"/>
<path d="M167 397C166.448 397 166 396.552 166 396C166 395.448 166.448 395 167 395C167.552 395 168 395.448 168 396C168 396.552 167.552 397 167 397Z" fill="white"/>
<path d="M222 797C222.552 797 223 796.552 223 796C223 795.448 222.552 795 222 795C221.448 795 221 795.448 221 796C221 796.552 221.448 797 222 797Z" fill="white"/>
<path d="M267 399C266.448 399 266 398.552 266 398C266 397.448 266.448 397 267 397C267.552 397 268 397.448 268 398C268 398.552 267.552 399 267 399Z" fill="white"/>
<path d="M377 339C376.448 339 376 338.552 376 338C376 337.448 376.448 337 377 337C377.552 337 378 337.448 378 338C378 338.552 377.552 339 377 339Z" fill="white"/>
<path d="M387 321C386.448 321 386 320.552 386 320C386 319.448 386.448 319 387 319C387.552 319 388 319.448 388 320C388 320.552 387.552 321 387 321Z" fill="white"/>
<path d="M135 350C134.448 350 134 349.552 134 349C134 348.448 134.448 348 135 348C135.552 348 136 348.448 136 349C136 349.552 135.552 350 135 350Z" fill="white"/>
<path d="M234 352C233.448 352 233 351.552 233 351C233 350.448 233.448 350 234 350C234.552 350 235 350.448 235 351C235 351.552 234.552 352 234 352Z" fill="white"/>
<path d="M79 66C79.5523 66 80 65.5523 80 65C80 64.4477 79.5523 64 79 64C78.4477 64 78 64.4477 78 65C78 65.5523 78.4477 66 79 66Z" fill="white"/>
<path d="M77 206C77.5523 206 78 205.552 78 205C78 204.448 77.5523 204 77 204C76.4477 204 76 204.448 76 205C76 205.552 76.4477 206 77 206Z" fill="white"/>
<path d="M312 606C311.448 606 311 605.552 311 605C311 604.448 311.448 604 312 604C312.552 604 313 604.448 313 605C313 605.552 312.552 606 312 606Z" fill="white"/>
<path d="M250 418C249.448 418 249 417.552 249 417C249 416.448 249.448 416 250 416C250.552 416 251 416.448 251 417C251 417.552 250.552 418 250 418Z" fill="white"/>
<path d="M90 797C90.5523 797 91 796.552 91 796C91 795.448 90.5523 795 90 795C89.4477 795 89 795.448 89 796C89 796.552 89.4477 797 90 797Z" fill="white"/>
<path d="M87 723C87.5523 723 88 722.552 88 722C88 721.448 87.5523 721 87 721C86.4477 721 86 721.448 86 722C86 722.552 86.4477 723 87 723Z" fill="white"/>
<path d="M330 296C329.448 296 329 295.552 329 295C329 294.448 329.448 294 330 294C330.552 294 331 294.448 331 295C331 295.552 330.552 296 330 296Z" fill="white"/>
<path d="M230 56C230.552 56 231 55.5523 231 55C231 54.4477 230.552 54 230 54C229.448 54 229 54.4477 229 55C229 55.5523 229.448 56 230 56Z" fill="white"/>
<path d="M270 120C270.552 120 271 119.552 271 119C271 118.448 270.552 118 270 118C269.448 118 269 118.448 269 119C269 119.552 269.448 120 270 120Z" fill="white"/>
<path d="M140 527C139.448 527 139 526.552 139 526C139 525.448 139.448 525 140 525C140.552 525 141 525.448 141 526C141 526.552 140.552 527 140 527Z" fill="white"/>
<path d="M125 303C124.448 303 124 302.552 124 302C124 301.448 124.448 301 125 301C125.552 301 126 301.448 126 302C126 302.552 125.552 303 125 303Z" fill="white"/>
<path d="M264 703C264.552 703 265 702.552 265 702C265 701.448 264.552 701 264 701C263.448 701 263 701.448 263 702C263 702.552 263.448 703 264 703Z" fill="white"/>
<path d="M303.5 221C304.881 221 306 219.881 306 218.5C306 217.119 304.881 216 303.5 216C302.119 216 301 217.119 301 218.5C301 219.881 302.119 221 303.5 221Z" fill="white"/>
<path d="M66.5 617C65.1193 617 64 615.881 64 614.5C64 613.119 65.1193 612 66.5 612C67.8807 612 69 613.119 69 614.5C69 615.881 67.8807 617 66.5 617Z" fill="white"/>
<path d="M158 122C158.552 122 159 121.552 159 121C159 120.448 158.552 120 158 120C157.448 120 157 120.448 157 121C157 121.552 157.448 122 158 122Z" fill="white"/>
<path d="M231 522C230.448 522 230 521.552 230 521C230 520.448 230.448 520 231 520C231.552 520 232 520.448 232 521C232 521.552 231.552 522 231 522Z" fill="white"/>
<path d="M227 289C226.448 289 226 288.552 226 288C226 287.448 226.448 287 227 287C227.552 287 228 287.448 228 288C228 288.552 227.552 289 227 289Z" fill="white"/>
<path d="M199 164C199.552 164 200 163.552 200 163C200 162.448 199.552 162 199 162C198.448 162 198 162.448 198 163C198 163.552 198.448 164 199 164Z" fill="white"/>
<path d="M196 564C195.448 564 195 563.552 195 563C195 562.448 195.448 562 196 562C196.552 562 197 562.448 197 563C197 563.552 196.552 564 196 564Z" fill="white"/>
<path d="M202 347C201.448 347 201 346.552 201 346C201 345.448 201.448 345 202 345C202.552 345 203 345.448 203 346C203 346.552 202.552 347 202 347Z" fill="white"/>
<path d="M193 747C193.552 747 194 746.552 194 746C194 745.448 193.552 745 193 745C192.448 745 192 745.448 192 746C192 746.552 192.448 747 193 747Z" fill="white"/>
<path d="M353 37C353.552 37 354 36.5523 354 36C354 35.4477 353.552 35 353 35C352.448 35 352 35.4477 352 36C352 36.5523 352.448 37 353 37Z" fill="white"/>
<path d="M375 108C375.552 108 376 107.552 376 107C376 106.448 375.552 106 375 106C374.448 106 374 106.448 374 107C374 107.552 374.448 108 375 108Z" fill="white"/>
<path d="M363 691C363.552 691 364 690.552 364 690C364 689.448 363.552 689 363 689C362.448 689 362 689.448 362 690C362 690.552 362.448 691 363 691Z" fill="white"/>
<path d="M235 489C234.448 489 234 488.552 234 488C234 487.448 234.448 487 235 487C235.552 487 236 487.448 236 488C236 488.552 235.552 489 235 489Z" fill="white"/>
<path d="M305 79C305.552 79 306 78.5523 306 78C306 77.4477 305.552 77 305 77C304.448 77 304 77.4477 304 78C304 78.5523 304.448 79 305 79Z" fill="white"/>
<path d="M56 245C55.4477 245 55 244.552 55 244C55 243.448 55.4477 243 56 243C56.5523 243 57 243.448 57 244C57 244.552 56.5523 245 56 245Z" fill="white"/>
<path d="M339 795C339.552 795 340 794.552 340 794C340 793.448 339.552 793 339 793C338.448 793 338 793.448 338 794C338 794.552 338.448 795 339 795Z" fill="white"/>
<path d="M324 185C324.552 185 325 184.552 325 184C325 183.448 324.552 183 324 183C323.448 183 323 183.448 323 184C323 184.552 323.448 185 324 185Z" fill="white"/>
<path d="M157 49C157.552 49 158 48.5523 158 48C158 47.4477 157.552 47 157 47C156.448 47 156 47.4477 156 48C156 48.5523 156.448 49 157 49Z" fill="white"/>
<path d="M147 167C147.552 167 148 166.552 148 166C148 165.448 147.552 165 147 165C146.448 165 146 165.448 146 166C146 166.552 146.448 167 147 167Z" fill="white"/>
<path d="M242 567C241.448 567 241 566.552 241 566C241 565.448 241.448 565 242 565C242.552 565 243 565.448 243 566C243 566.552 242.552 567 242 567Z" fill="white"/>
<path d="M292 24C292.552 24 293 23.5523 293 23C293 22.4477 292.552 22 292 22C291.448 22 291 22.4477 291 23C291 23.5523 291.448 24 292 24Z" fill="white"/>
<path d="M340 150C340.552 150 341 149.552 341 149C341 148.448 340.552 148 340 148C339.448 148 339 148.448 339 149C339 149.552 339.448 150 340 150Z" fill="white"/>
<path d="M100 576C99.4477 576 99 575.552 99 575C99 574.448 99.4477 574 100 574C100.552 574 101 574.448 101 575C101 575.552 100.552 576 100 576Z" fill="white"/>
<path d="M55 333C54.4477 333 54 332.552 54 332C54 331.448 54.4477 331 55 331C55.5523 331 56 331.448 56 332C56 332.552 55.5523 333 55 333Z" fill="white"/>
<path d="M105.386 430.105C105.166 430.105 104.996 430.045 104.876 429.925C104.756 429.795 104.696 429.615 104.696 429.385V420.025C104.696 419.795 104.756 419.62 104.876 419.5C104.996 419.38 105.166 419.32 105.386 419.32C105.616 419.32 105.791 419.38 105.911 419.5C106.031 419.62 106.091 419.795 106.091 420.025V424.21H106.121L110.861 419.695C111.001 419.565 111.131 419.47 111.251 419.41C111.381 419.35 111.521 419.32 111.671 419.32C111.881 419.32 112.031 419.375 112.121 419.485C112.221 419.585 112.261 419.71 112.241 419.86C112.221 420 112.146 420.135 112.016 420.265L107.066 424.915L107.081 424.21L112.256 429.07C112.416 429.22 112.501 429.38 112.511 429.55C112.521 429.71 112.471 429.845 112.361 429.955C112.261 430.055 112.106 430.105 111.896 430.105C111.726 430.105 111.581 430.07 111.461 430C111.351 429.93 111.221 429.82 111.071 429.67L106.121 425.035H106.091V429.385C106.091 429.615 106.031 429.795 105.911 429.925C105.801 430.045 105.626 430.105 105.386 430.105ZM116.561 430.135C115.771 430.135 115.091 429.985 114.521 429.685C113.961 429.375 113.526 428.94 113.216 428.38C112.906 427.81 112.751 427.14 112.751 426.37C112.751 425.61 112.901 424.945 113.201 424.375C113.511 423.805 113.931 423.36 114.461 423.04C115.001 422.72 115.616 422.56 116.306 422.56C116.796 422.56 117.236 422.645 117.626 422.815C118.026 422.975 118.366 423.21 118.646 423.52C118.926 423.83 119.136 424.21 119.276 424.66C119.426 425.1 119.501 425.6 119.501 426.16C119.501 426.32 119.451 426.445 119.351 426.535C119.261 426.615 119.126 426.655 118.946 426.655H113.816V425.785H118.601L118.346 425.995C118.346 425.475 118.266 425.035 118.106 424.675C117.956 424.305 117.731 424.025 117.431 423.835C117.141 423.645 116.776 423.55 116.336 423.55C115.856 423.55 115.446 423.665 115.106 423.895C114.766 424.115 114.506 424.43 114.326 424.84C114.146 425.24 114.056 425.705 114.056 426.235V426.325C114.056 427.225 114.271 427.905 114.701 428.365C115.131 428.825 115.751 429.055 116.561 429.055C116.881 429.055 117.206 429.015 117.536 428.935C117.876 428.855 118.201 428.71 118.511 428.5C118.661 428.41 118.796 428.37 118.916 428.38C119.046 428.38 119.151 428.42 119.231 428.5C119.311 428.57 119.361 428.66 119.381 428.77C119.401 428.87 119.386 428.98 119.336 429.1C119.286 429.22 119.191 429.325 119.051 429.415C118.721 429.645 118.326 429.825 117.866 429.955C117.416 430.075 116.981 430.135 116.561 430.135ZM123.912 430.135C123.122 430.135 122.442 429.985 121.872 429.685C121.312 429.375 120.877 428.94 120.567 428.38C120.257 427.81 120.102 427.14 120.102 426.37C120.102 425.61 120.252 424.945 120.552 424.375C120.862 423.805 121.282 423.36 121.812 423.04C122.352 422.72 122.967 422.56 123.657 422.56C124.147 422.56 124.587 422.645 124.977 422.815C125.377 422.975 125.717 423.21 125.997 423.52C126.277 423.83 126.487 424.21 126.627 424.66C126.777 425.1 126.852 425.6 126.852 426.16C126.852 426.32 126.802 426.445 126.702 426.535C126.612 426.615 126.477 426.655 126.297 426.655H121.167V425.785H125.952L125.697 425.995C125.697 425.475 125.617 425.035 125.457 424.675C125.307 424.305 125.082 424.025 124.782 423.835C124.492 423.645 124.127 423.55 123.687 423.55C123.207 423.55 122.797 423.665 122.457 423.895C122.117 424.115 121.857 424.43 121.677 424.84C121.497 425.24 121.407 425.705 121.407 426.235V426.325C121.407 427.225 121.622 427.905 122.052 428.365C122.482 428.825 123.102 429.055 123.912 429.055C124.232 429.055 124.557 429.015 124.887 428.935C125.227 428.855 125.552 428.71 125.862 428.5C126.012 428.41 126.147 428.37 126.267 428.38C126.397 428.38 126.502 428.42 126.582 428.5C126.662 428.57 126.712 428.66 126.732 428.77C126.752 428.87 126.737 428.98 126.687 429.1C126.637 429.22 126.542 429.325 126.402 429.415C126.072 429.645 125.677 429.825 125.217 429.955C124.767 430.075 124.332 430.135 123.912 430.135ZM128.563 432.805C128.353 432.805 128.188 432.745 128.068 432.625C127.948 432.505 127.888 432.335 127.888 432.115V423.28C127.888 423.05 127.948 422.88 128.068 422.77C128.188 422.65 128.353 422.59 128.563 422.59C128.783 422.59 128.948 422.65 129.058 422.77C129.178 422.88 129.238 423.05 129.238 423.28V424.645L129.073 424.375C129.233 423.825 129.548 423.385 130.018 423.055C130.488 422.725 131.053 422.56 131.713 422.56C132.363 422.56 132.928 422.715 133.408 423.025C133.888 423.325 134.263 423.76 134.533 424.33C134.803 424.89 134.938 425.56 134.938 426.34C134.938 427.11 134.803 427.785 134.533 428.365C134.273 428.935 133.898 429.375 133.408 429.685C132.928 429.985 132.363 430.135 131.713 430.135C131.063 430.135 130.503 429.97 130.033 429.64C129.563 429.31 129.248 428.875 129.088 428.335H129.253V432.115C129.253 432.335 129.193 432.505 129.073 432.625C128.953 432.745 128.783 432.805 128.563 432.805ZM131.398 429.055C131.828 429.055 132.203 428.95 132.523 428.74C132.853 428.53 133.108 428.225 133.288 427.825C133.468 427.425 133.558 426.93 133.558 426.34C133.558 425.46 133.363 424.79 132.973 424.33C132.583 423.87 132.058 423.64 131.398 423.64C130.958 423.64 130.573 423.745 130.243 423.955C129.923 424.155 129.673 424.455 129.493 424.855C129.323 425.255 129.238 425.75 129.238 426.34C129.238 427.22 129.433 427.895 129.823 428.365C130.213 428.825 130.738 429.055 131.398 429.055ZM141.891 430.135C141.301 430.135 140.806 430.025 140.406 429.805C140.016 429.585 139.726 429.26 139.536 428.83C139.346 428.4 139.251 427.86 139.251 427.21V423.28C139.251 423.05 139.306 422.88 139.416 422.77C139.536 422.65 139.706 422.59 139.926 422.59C140.146 422.59 140.316 422.65 140.436 422.77C140.556 422.88 140.616 423.05 140.616 423.28V427.21C140.616 427.83 140.741 428.29 140.991 428.59C141.241 428.88 141.636 429.025 142.176 429.025C142.776 429.025 143.261 428.825 143.631 428.425C144.011 428.025 144.201 427.495 144.201 426.835V423.28C144.201 423.05 144.256 422.88 144.366 422.77C144.486 422.65 144.656 422.59 144.876 422.59C145.096 422.59 145.266 422.65 145.386 422.77C145.506 422.88 145.566 423.05 145.566 423.28V429.4C145.566 429.87 145.346 430.105 144.906 430.105C144.686 430.105 144.516 430.045 144.396 429.925C144.286 429.805 144.231 429.63 144.231 429.4V428.095L144.426 428.35C144.226 428.93 143.901 429.375 143.451 429.685C143.011 429.985 142.491 430.135 141.891 430.135ZM147.776 432.805C147.566 432.805 147.401 432.745 147.281 432.625C147.161 432.505 147.101 432.335 147.101 432.115V423.28C147.101 423.05 147.161 422.88 147.281 422.77C147.401 422.65 147.566 422.59 147.776 422.59C147.996 422.59 148.161 422.65 148.271 422.77C148.391 422.88 148.451 423.05 148.451 423.28V424.645L148.286 424.375C148.446 423.825 148.761 423.385 149.231 423.055C149.701 422.725 150.266 422.56 150.926 422.56C151.576 422.56 152.141 422.715 152.621 423.025C153.101 423.325 153.476 423.76 153.746 424.33C154.016 424.89 154.151 425.56 154.151 426.34C154.151 427.11 154.016 427.785 153.746 428.365C153.486 428.935 153.111 429.375 152.621 429.685C152.141 429.985 151.576 430.135 150.926 430.135C150.276 430.135 149.716 429.97 149.246 429.64C148.776 429.31 148.461 428.875 148.301 428.335H148.466V432.115C148.466 432.335 148.406 432.505 148.286 432.625C148.166 432.745 147.996 432.805 147.776 432.805ZM150.611 429.055C151.041 429.055 151.416 428.95 151.736 428.74C152.066 428.53 152.321 428.225 152.501 427.825C152.681 427.425 152.771 426.93 152.771 426.34C152.771 425.46 152.576 424.79 152.186 424.33C151.796 423.87 151.271 423.64 150.611 423.64C150.171 423.64 149.786 423.745 149.456 423.955C149.136 424.155 148.886 424.455 148.706 424.855C148.536 425.255 148.451 425.75 148.451 426.34C148.451 427.22 148.646 427.895 149.036 428.365C149.426 428.825 149.951 429.055 150.611 429.055ZM161.598 430.135C160.878 430.135 160.253 429.98 159.723 429.67C159.193 429.36 158.783 428.92 158.493 428.35C158.203 427.78 158.058 427.11 158.058 426.34C158.058 425.76 158.138 425.24 158.298 424.78C158.468 424.31 158.708 423.91 159.018 423.58C159.328 423.25 159.698 423 160.128 422.83C160.568 422.65 161.058 422.56 161.598 422.56C162.318 422.56 162.943 422.715 163.473 423.025C164.003 423.335 164.413 423.775 164.703 424.345C164.993 424.905 165.138 425.57 165.138 426.34C165.138 426.92 165.053 427.445 164.883 427.915C164.723 428.385 164.488 428.785 164.178 429.115C163.868 429.445 163.493 429.7 163.053 429.88C162.623 430.05 162.138 430.135 161.598 430.135ZM161.598 429.055C162.038 429.055 162.418 428.95 162.738 428.74C163.068 428.53 163.318 428.225 163.488 427.825C163.668 427.425 163.758 426.93 163.758 426.34C163.758 425.46 163.563 424.79 163.173 424.33C162.783 423.87 162.258 423.64 161.598 423.64C161.168 423.64 160.788 423.745 160.458 423.955C160.138 424.155 159.888 424.455 159.708 424.855C159.528 425.255 159.438 425.75 159.438 426.34C159.438 427.22 159.633 427.895 160.023 428.365C160.423 428.825 160.948 429.055 161.598 429.055ZM166.9 430.105C166.69 430.105 166.525 430.045 166.405 429.925C166.285 429.805 166.225 429.63 166.225 429.4V423.28C166.225 423.05 166.285 422.88 166.405 422.77C166.525 422.65 166.69 422.59 166.9 422.59C167.11 422.59 167.27 422.65 167.38 422.77C167.5 422.88 167.56 423.05 167.56 423.28V424.51L167.395 424.285C167.605 423.715 167.945 423.285 168.415 422.995C168.895 422.705 169.44 422.56 170.05 422.56C170.64 422.56 171.125 422.665 171.505 422.875C171.885 423.085 172.17 423.405 172.36 423.835C172.55 424.265 172.645 424.81 172.645 425.47V429.4C172.645 429.63 172.585 429.805 172.465 429.925C172.355 430.045 172.19 430.105 171.97 430.105C171.75 430.105 171.58 430.045 171.46 429.925C171.34 429.805 171.28 429.63 171.28 429.4V425.545C171.28 424.895 171.155 424.42 170.905 424.12C170.655 423.82 170.255 423.67 169.705 423.67C169.065 423.67 168.55 423.87 168.16 424.27C167.78 424.66 167.59 425.19 167.59 425.86V429.4C167.59 429.87 167.36 430.105 166.9 430.105ZM179.078 432.805C178.918 432.805 178.783 432.76 178.673 432.67C178.573 432.59 178.513 432.475 178.493 432.325C178.483 432.185 178.513 432.035 178.583 431.875L179.603 429.565V430.135L176.768 423.535C176.698 423.365 176.673 423.21 176.693 423.07C176.713 422.93 176.778 422.815 176.888 422.725C177.008 422.635 177.168 422.59 177.368 422.59C177.538 422.59 177.673 422.63 177.773 422.71C177.873 422.79 177.968 422.93 178.058 423.13L180.413 428.935H179.993L182.393 423.13C182.473 422.93 182.568 422.79 182.678 422.71C182.788 422.63 182.938 422.59 183.128 422.59C183.298 422.59 183.428 422.635 183.518 422.725C183.618 422.815 183.678 422.93 183.698 423.07C183.718 423.21 183.688 423.36 183.608 423.52L179.828 432.265C179.728 432.475 179.623 432.615 179.513 432.685C179.413 432.765 179.268 432.805 179.078 432.805ZM187.473 430.135C186.753 430.135 186.128 429.98 185.598 429.67C185.068 429.36 184.658 428.92 184.368 428.35C184.078 427.78 183.933 427.11 183.933 426.34C183.933 425.76 184.013 425.24 184.173 424.78C184.343 424.31 184.583 423.91 184.893 423.58C185.203 423.25 185.573 423 186.003 422.83C186.443 422.65 186.933 422.56 187.473 422.56C188.193 422.56 188.818 422.715 189.348 423.025C189.878 423.335 190.288 423.775 190.578 424.345C190.868 424.905 191.013 425.57 191.013 426.34C191.013 426.92 190.928 427.445 190.758 427.915C190.598 428.385 190.363 428.785 190.053 429.115C189.743 429.445 189.368 429.7 188.928 429.88C188.498 430.05 188.013 430.135 187.473 430.135ZM187.473 429.055C187.913 429.055 188.293 428.95 188.613 428.74C188.943 428.53 189.193 428.225 189.363 427.825C189.543 427.425 189.633 426.93 189.633 426.34C189.633 425.46 189.438 424.79 189.048 424.33C188.658 423.87 188.133 423.64 187.473 423.64C187.043 423.64 186.663 423.745 186.333 423.955C186.013 424.155 185.763 424.455 185.583 424.855C185.403 425.255 185.313 425.75 185.313 426.34C185.313 427.22 185.508 427.895 185.898 428.365C186.298 428.825 186.823 429.055 187.473 429.055ZM194.711 430.135C194.121 430.135 193.626 430.025 193.226 429.805C192.836 429.585 192.546 429.26 192.356 428.83C192.166 428.4 192.071 427.86 192.071 427.21V423.28C192.071 423.05 192.126 422.88 192.236 422.77C192.356 422.65 192.526 422.59 192.746 422.59C192.966 422.59 193.136 422.65 193.256 422.77C193.376 422.88 193.436 423.05 193.436 423.28V427.21C193.436 427.83 193.561 428.29 193.811 428.59C194.061 428.88 194.456 429.025 194.996 429.025C195.596 429.025 196.081 428.825 196.451 428.425C196.831 428.025 197.021 427.495 197.021 426.835V423.28C197.021 423.05 197.076 422.88 197.186 422.77C197.306 422.65 197.476 422.59 197.696 422.59C197.916 422.59 198.086 422.65 198.206 422.77C198.326 422.88 198.386 423.05 198.386 423.28V429.4C198.386 429.87 198.166 430.105 197.726 430.105C197.506 430.105 197.336 430.045 197.216 429.925C197.106 429.805 197.051 429.63 197.051 429.4V428.095L197.246 428.35C197.046 428.93 196.721 429.375 196.271 429.685C195.831 429.985 195.311 430.135 194.711 430.135ZM200.626 430.105C200.396 430.105 200.221 430.045 200.101 429.925C199.981 429.805 199.921 429.63 199.921 429.4V423.28C199.921 423.05 199.981 422.88 200.101 422.77C200.221 422.65 200.386 422.59 200.596 422.59C200.806 422.59 200.966 422.65 201.076 422.77C201.196 422.88 201.256 423.05 201.256 423.28V424.435H201.106C201.266 423.835 201.566 423.38 202.006 423.07C202.446 422.76 203.001 422.585 203.671 422.545C203.831 422.535 203.961 422.575 204.061 422.665C204.161 422.745 204.216 422.885 204.226 423.085C204.236 423.275 204.191 423.43 204.091 423.55C203.991 423.66 203.836 423.725 203.626 423.745L203.356 423.76C202.696 423.83 202.186 424.045 201.826 424.405C201.476 424.765 201.301 425.26 201.301 425.89V429.4C201.301 429.63 201.241 429.805 201.121 429.925C201.011 430.045 200.846 430.105 200.626 430.105ZM210.778 430.135C210.138 430.135 209.573 429.985 209.083 429.685C208.603 429.375 208.228 428.935 207.958 428.365C207.688 427.785 207.553 427.11 207.553 426.34C207.553 425.56 207.683 424.89 207.943 424.33C208.213 423.76 208.588 423.325 209.068 423.025C209.558 422.715 210.128 422.56 210.778 422.56C211.428 422.56 211.988 422.725 212.458 423.055C212.928 423.375 213.243 423.805 213.403 424.345H213.238V420.01C213.238 419.78 213.293 419.61 213.403 419.5C213.523 419.38 213.693 419.32 213.913 419.32C214.133 419.32 214.303 419.38 214.423 419.5C214.543 419.61 214.603 419.78 214.603 420.01V429.4C214.603 429.63 214.543 429.805 214.423 429.925C214.303 430.045 214.133 430.105 213.913 430.105C213.703 430.105 213.538 430.045 213.418 429.925C213.298 429.805 213.238 429.63 213.238 429.4V428.035L213.403 428.305C213.253 428.865 212.938 429.31 212.458 429.64C211.988 429.97 211.428 430.135 210.778 430.135ZM211.093 429.055C211.533 429.055 211.913 428.95 212.233 428.74C212.563 428.53 212.813 428.225 212.983 427.825C213.163 427.425 213.253 426.93 213.253 426.34C213.253 425.46 213.058 424.79 212.668 424.33C212.278 423.87 211.753 423.64 211.093 423.64C210.663 423.64 210.283 423.745 209.953 423.955C209.633 424.155 209.383 424.455 209.203 424.855C209.023 425.255 208.933 425.75 208.933 426.34C208.933 427.22 209.128 427.895 209.518 428.365C209.918 428.825 210.443 429.055 211.093 429.055ZM218.455 430.135C217.955 430.135 217.5 430.035 217.09 429.835C216.69 429.635 216.375 429.365 216.145 429.025C215.925 428.685 215.815 428.305 215.815 427.885C215.815 427.345 215.95 426.92 216.22 426.61C216.49 426.3 216.945 426.08 217.585 425.95C218.225 425.81 219.085 425.74 220.165 425.74H220.87V426.61H220.195C219.425 426.61 218.815 426.645 218.365 426.715C217.925 426.785 217.615 426.91 217.435 427.09C217.255 427.26 217.165 427.5 217.165 427.81C217.165 428.2 217.3 428.52 217.57 428.77C217.85 429.02 218.23 429.145 218.71 429.145C219.09 429.145 219.425 429.055 219.715 428.875C220.005 428.685 220.235 428.435 220.405 428.125C220.575 427.805 220.66 427.44 220.66 427.03V425.305C220.66 424.715 220.54 424.29 220.3 424.03C220.06 423.76 219.655 423.625 219.085 423.625C218.755 423.625 218.415 423.67 218.065 423.76C217.715 423.85 217.35 423.99 216.97 424.18C216.82 424.25 216.69 424.275 216.58 424.255C216.47 424.225 216.38 424.165 216.31 424.075C216.25 423.975 216.215 423.87 216.205 423.76C216.205 423.64 216.23 423.525 216.28 423.415C216.34 423.305 216.44 423.225 216.58 423.175C217.02 422.955 217.455 422.8 217.885 422.71C218.325 422.61 218.735 422.56 219.115 422.56C219.765 422.56 220.3 422.665 220.72 422.875C221.14 423.075 221.455 423.39 221.665 423.82C221.875 424.24 221.98 424.78 221.98 425.44V429.4C221.98 429.63 221.925 429.805 221.815 429.925C221.705 430.045 221.545 430.105 221.335 430.105C221.135 430.105 220.975 430.045 220.855 429.925C220.745 429.805 220.69 429.63 220.69 429.4V428.335H220.825C220.745 428.705 220.595 429.025 220.375 429.295C220.155 429.565 219.88 429.775 219.55 429.925C219.23 430.065 218.865 430.135 218.455 430.135ZM224.142 430.075C223.932 430.075 223.767 430.01 223.647 429.88C223.527 429.75 223.467 429.57 223.467 429.34V423.355C223.467 423.115 223.527 422.935 223.647 422.815C223.767 422.685 223.932 422.62 224.142 422.62C224.362 422.62 224.532 422.685 224.652 422.815C224.772 422.935 224.832 423.115 224.832 423.355V429.34C224.832 429.57 224.772 429.75 224.652 429.88C224.542 430.01 224.372 430.075 224.142 430.075ZM224.142 421C223.872 421 223.657 420.93 223.497 420.79C223.347 420.64 223.272 420.445 223.272 420.205C223.272 419.945 223.347 419.75 223.497 419.62C223.657 419.48 223.872 419.41 224.142 419.41C224.432 419.41 224.647 419.48 224.787 419.62C224.937 419.75 225.012 419.945 225.012 420.205C225.012 420.445 224.937 420.64 224.787 420.79C224.647 420.93 224.432 421 224.142 421ZM228.66 430.135C227.91 430.135 227.34 429.915 226.95 429.475C226.56 429.025 226.365 428.38 226.365 427.54V420.01C226.365 419.78 226.425 419.61 226.545 419.5C226.665 419.38 226.83 419.32 227.04 419.32C227.26 419.32 227.43 419.38 227.55 419.5C227.67 419.61 227.73 419.78 227.73 420.01V427.435C227.73 427.955 227.835 428.345 228.045 428.605C228.265 428.855 228.575 428.98 228.975 428.98C229.065 428.98 229.145 428.98 229.215 428.98C229.285 428.97 229.355 428.96 229.425 428.95C229.535 428.94 229.615 428.97 229.665 429.04C229.715 429.11 229.74 429.25 229.74 429.46C229.74 429.65 229.695 429.8 229.605 429.91C229.525 430.01 229.39 430.075 229.2 430.105C229.11 430.115 229.02 430.12 228.93 430.12C228.84 430.13 228.75 430.135 228.66 430.135ZM231.72 432.805C231.56 432.805 231.425 432.76 231.315 432.67C231.215 432.59 231.155 432.475 231.135 432.325C231.125 432.185 231.155 432.035 231.225 431.875L232.245 429.565V430.135L229.41 423.535C229.34 423.365 229.315 423.21 229.335 423.07C229.355 422.93 229.42 422.815 229.53 422.725C229.65 422.635 229.81 422.59 230.01 422.59C230.18 422.59 230.315 422.63 230.415 422.71C230.515 422.79 230.61 422.93 230.7 423.13L233.055 428.935H232.635L235.035 423.13C235.115 422.93 235.21 422.79 235.32 422.71C235.43 422.63 235.58 422.59 235.77 422.59C235.94 422.59 236.07 422.635 236.16 422.725C236.26 422.815 236.32 422.93 236.34 423.07C236.36 423.21 236.33 423.36 236.25 423.52L232.47 432.265C232.37 432.475 232.265 432.615 232.155 432.685C232.055 432.765 231.91 432.805 231.72 432.805ZM241.053 432.805C240.843 432.805 240.678 432.745 240.558 432.625C240.438 432.505 240.378 432.335 240.378 432.115V423.28C240.378 423.05 240.438 422.88 240.558 422.77C240.678 422.65 240.843 422.59 241.053 422.59C241.273 422.59 241.438 422.65 241.548 422.77C241.668 422.88 241.728 423.05 241.728 423.28V424.645L241.563 424.375C241.723 423.825 242.038 423.385 242.508 423.055C242.978 422.725 243.543 422.56 244.203 422.56C244.853 422.56 245.418 422.715 245.898 423.025C246.378 423.325 246.753 423.76 247.023 424.33C247.293 424.89 247.428 425.56 247.428 426.34C247.428 427.11 247.293 427.785 247.023 428.365C246.763 428.935 246.388 429.375 245.898 429.685C245.418 429.985 244.853 430.135 244.203 430.135C243.553 430.135 242.993 429.97 242.523 429.64C242.053 429.31 241.738 428.875 241.578 428.335H241.743V432.115C241.743 432.335 241.683 432.505 241.563 432.625C241.443 432.745 241.273 432.805 241.053 432.805ZM243.888 429.055C244.318 429.055 244.693 428.95 245.013 428.74C245.343 428.53 245.598 428.225 245.778 427.825C245.958 427.425 246.048 426.93 246.048 426.34C246.048 425.46 245.853 424.79 245.463 424.33C245.073 423.87 244.548 423.64 243.888 423.64C243.448 423.64 243.063 423.745 242.733 423.955C242.413 424.155 242.163 424.455 241.983 424.855C241.813 425.255 241.728 425.75 241.728 426.34C241.728 427.22 241.923 427.895 242.313 428.365C242.703 428.825 243.228 429.055 243.888 429.055ZM249.225 430.105C248.995 430.105 248.82 430.045 248.7 429.925C248.58 429.805 248.52 429.63 248.52 429.4V423.28C248.52 423.05 248.58 422.88 248.7 422.77C248.82 422.65 248.985 422.59 249.195 422.59C249.405 422.59 249.565 422.65 249.675 422.77C249.795 422.88 249.855 423.05 249.855 423.28V424.435H249.705C249.865 423.835 250.165 423.38 250.605 423.07C251.045 422.76 251.6 422.585 252.27 422.545C252.43 422.535 252.56 422.575 252.66 422.665C252.76 422.745 252.815 422.885 252.825 423.085C252.835 423.275 252.79 423.43 252.69 423.55C252.59 423.66 252.435 423.725 252.225 423.745L251.955 423.76C251.295 423.83 250.785 424.045 250.425 424.405C250.075 424.765 249.9 425.26 249.9 425.89V429.4C249.9 429.63 249.84 429.805 249.72 429.925C249.61 430.045 249.445 430.105 249.225 430.105ZM255.589 430.135C255.089 430.135 254.634 430.035 254.224 429.835C253.824 429.635 253.509 429.365 253.279 429.025C253.059 428.685 252.949 428.305 252.949 427.885C252.949 427.345 253.084 426.92 253.354 426.61C253.624 426.3 254.079 426.08 254.719 425.95C255.359 425.81 256.219 425.74 257.299 425.74H258.004V426.61H257.329C256.559 426.61 255.949 426.645 255.499 426.715C255.059 426.785 254.749 426.91 254.569 427.09C254.389 427.26 254.299 427.5 254.299 427.81C254.299 428.2 254.434 428.52 254.704 428.77C254.984 429.02 255.364 429.145 255.844 429.145C256.224 429.145 256.559 429.055 256.849 428.875C257.139 428.685 257.369 428.435 257.539 428.125C257.709 427.805 257.794 427.44 257.794 427.03V425.305C257.794 424.715 257.674 424.29 257.434 424.03C257.194 423.76 256.789 423.625 256.219 423.625C255.889 423.625 255.549 423.67 255.199 423.76C254.849 423.85 254.484 423.99 254.104 424.18C253.954 424.25 253.824 424.275 253.714 424.255C253.604 424.225 253.514 424.165 253.444 424.075C253.384 423.975 253.349 423.87 253.339 423.76C253.339 423.64 253.364 423.525 253.414 423.415C253.474 423.305 253.574 423.225 253.714 423.175C254.154 422.955 254.589 422.8 255.019 422.71C255.459 422.61 255.869 422.56 256.249 422.56C256.899 422.56 257.434 422.665 257.854 422.875C258.274 423.075 258.589 423.39 258.799 423.82C259.009 424.24 259.114 424.78 259.114 425.44V429.4C259.114 429.63 259.059 429.805 258.949 429.925C258.839 430.045 258.679 430.105 258.469 430.105C258.269 430.105 258.109 430.045 257.989 429.925C257.879 429.805 257.824 429.63 257.824 429.4V428.335H257.959C257.879 428.705 257.729 429.025 257.509 429.295C257.289 429.565 257.014 429.775 256.684 429.925C256.364 430.065 255.999 430.135 255.589 430.135ZM263.766 430.135C263.026 430.135 262.386 429.98 261.846 429.67C261.306 429.35 260.891 428.905 260.601 428.335C260.311 427.755 260.166 427.075 260.166 426.295C260.166 425.715 260.246 425.195 260.406 424.735C260.576 424.275 260.816 423.885 261.126 423.565C261.436 423.235 261.811 422.985 262.251 422.815C262.701 422.645 263.206 422.56 263.766 422.56C264.116 422.56 264.486 422.615 264.876 422.725C265.266 422.835 265.626 423.015 265.956 423.265C266.066 423.345 266.136 423.44 266.166 423.55C266.196 423.65 266.196 423.755 266.166 423.865C266.146 423.975 266.096 424.07 266.016 424.15C265.946 424.22 265.851 424.26 265.731 424.27C265.621 424.28 265.501 424.245 265.371 424.165C265.131 423.985 264.876 423.855 264.606 423.775C264.346 423.695 264.096 423.655 263.856 423.655C263.486 423.655 263.156 423.715 262.866 423.835C262.586 423.955 262.346 424.13 262.146 424.36C261.956 424.58 261.811 424.855 261.711 425.185C261.611 425.505 261.561 425.88 261.561 426.31C261.561 427.16 261.761 427.83 262.161 428.32C262.561 428.8 263.126 429.04 263.856 429.04C264.096 429.04 264.346 429.005 264.606 428.935C264.866 428.855 265.121 428.725 265.371 428.545C265.501 428.465 265.621 428.435 265.731 428.455C265.841 428.465 265.931 428.51 266.001 428.59C266.081 428.66 266.131 428.75 266.151 428.86C266.171 428.96 266.161 429.065 266.121 429.175C266.091 429.285 266.021 429.375 265.911 429.445C265.591 429.685 265.241 429.86 264.861 429.97C264.481 430.08 264.116 430.135 263.766 430.135ZM269.957 430.135C269.367 430.135 268.872 430.03 268.472 429.82C268.082 429.61 267.787 429.305 267.587 428.905C267.397 428.505 267.302 428.015 267.302 427.435V423.745H266.342C266.162 423.745 266.022 423.7 265.922 423.61C265.822 423.51 265.772 423.38 265.772 423.22C265.772 423.05 265.822 422.92 265.922 422.83C266.022 422.74 266.162 422.695 266.342 422.695H267.302V421.06C267.302 420.83 267.362 420.66 267.482 420.55C267.602 420.43 267.772 420.37 267.992 420.37C268.212 420.37 268.377 420.43 268.487 420.55C268.607 420.66 268.667 420.83 268.667 421.06V422.695H270.482C270.672 422.695 270.817 422.74 270.917 422.83C271.017 422.92 271.067 423.05 271.067 423.22C271.067 423.38 271.017 423.51 270.917 423.61C270.817 423.7 270.672 423.745 270.482 423.745H268.667V427.315C268.667 427.865 268.782 428.28 269.012 428.56C269.242 428.84 269.622 428.98 270.152 428.98C270.342 428.98 270.502 428.965 270.632 428.935C270.762 428.895 270.877 428.875 270.977 428.875C271.067 428.865 271.142 428.895 271.202 428.965C271.272 429.035 271.307 429.165 271.307 429.355C271.307 429.495 271.282 429.625 271.232 429.745C271.192 429.855 271.107 429.93 270.977 429.97C270.857 430.01 270.697 430.045 270.497 430.075C270.297 430.115 270.117 430.135 269.957 430.135ZM272.434 430.075C272.224 430.075 272.059 430.01 271.939 429.88C271.819 429.75 271.759 429.57 271.759 429.34V423.355C271.759 423.115 271.819 422.935 271.939 422.815C272.059 422.685 272.224 422.62 272.434 422.62C272.654 422.62 272.824 422.685 272.944 422.815C273.064 422.935 273.124 423.115 273.124 423.355V429.34C273.124 429.57 273.064 429.75 272.944 429.88C272.834 430.01 272.664 430.075 272.434 430.075ZM272.434 421C272.164 421 271.949 420.93 271.789 420.79C271.639 420.64 271.564 420.445 271.564 420.205C271.564 419.945 271.639 419.75 271.789 419.62C271.949 419.48 272.164 419.41 272.434 419.41C272.724 419.41 272.939 419.48 273.079 419.62C273.229 419.75 273.304 419.945 273.304 420.205C273.304 420.445 273.229 420.64 273.079 420.79C272.939 420.93 272.724 421 272.434 421ZM277.822 430.135C277.082 430.135 276.442 429.98 275.902 429.67C275.362 429.35 274.947 428.905 274.657 428.335C274.367 427.755 274.222 427.075 274.222 426.295C274.222 425.715 274.302 425.195 274.462 424.735C274.632 424.275 274.872 423.885 275.182 423.565C275.492 423.235 275.867 422.985 276.307 422.815C276.757 422.645 277.262 422.56 277.822 422.56C278.172 422.56 278.542 422.615 278.932 422.725C279.322 422.835 279.682 423.015 280.012 423.265C280.122 423.345 280.192 423.44 280.222 423.55C280.252 423.65 280.252 423.755 280.222 423.865C280.202 423.975 280.152 424.07 280.072 424.15C280.002 424.22 279.907 424.26 279.787 424.27C279.677 424.28 279.557 424.245 279.427 424.165C279.187 423.985 278.932 423.855 278.662 423.775C278.402 423.695 278.152 423.655 277.912 423.655C277.542 423.655 277.212 423.715 276.922 423.835C276.642 423.955 276.402 424.13 276.202 424.36C276.012 424.58 275.867 424.855 275.767 425.185C275.667 425.505 275.617 425.88 275.617 426.31C275.617 427.16 275.817 427.83 276.217 428.32C276.617 428.8 277.182 429.04 277.912 429.04C278.152 429.04 278.402 429.005 278.662 428.935C278.922 428.855 279.177 428.725 279.427 428.545C279.557 428.465 279.677 428.435 279.787 428.455C279.897 428.465 279.987 428.51 280.057 428.59C280.137 428.66 280.187 428.75 280.207 428.86C280.227 428.96 280.217 429.065 280.177 429.175C280.147 429.285 280.077 429.375 279.967 429.445C279.647 429.685 279.297 429.86 278.917 429.97C278.537 430.08 278.172 430.135 277.822 430.135ZM284.197 430.135C283.407 430.135 282.727 429.985 282.157 429.685C281.597 429.375 281.162 428.94 280.852 428.38C280.542 427.81 280.387 427.14 280.387 426.37C280.387 425.61 280.537 424.945 280.837 424.375C281.147 423.805 281.567 423.36 282.097 423.04C282.637 422.72 283.252 422.56 283.942 422.56C284.432 422.56 284.872 422.645 285.262 422.815C285.662 422.975 286.002 423.21 286.282 423.52C286.562 423.83 286.772 424.21 286.912 424.66C287.062 425.1 287.137 425.6 287.137 426.16C287.137 426.32 287.087 426.445 286.987 426.535C286.897 426.615 286.762 426.655 286.582 426.655H281.452V425.785H286.237L285.982 425.995C285.982 425.475 285.902 425.035 285.742 424.675C285.592 424.305 285.367 424.025 285.067 423.835C284.777 423.645 284.412 423.55 283.972 423.55C283.492 423.55 283.082 423.665 282.742 423.895C282.402 424.115 282.142 424.43 281.962 424.84C281.782 425.24 281.692 425.705 281.692 426.235V426.325C281.692 427.225 281.907 427.905 282.337 428.365C282.767 428.825 283.387 429.055 284.197 429.055C284.517 429.055 284.842 429.015 285.172 428.935C285.512 428.855 285.837 428.71 286.147 428.5C286.297 428.41 286.432 428.37 286.552 428.38C286.682 428.38 286.787 428.42 286.867 428.5C286.947 428.57 286.997 428.66 287.017 428.77C287.037 428.87 287.022 428.98 286.972 429.1C286.922 429.22 286.827 429.325 286.687 429.415C286.357 429.645 285.962 429.825 285.502 429.955C285.052 430.075 284.617 430.135 284.197 430.135ZM288.833 427.225C288.703 427.225 288.593 427.185 288.503 427.105C288.423 427.015 288.378 426.88 288.368 426.7L288.038 420.205C288.018 419.935 288.078 419.72 288.218 419.56C288.358 419.4 288.563 419.32 288.833 419.32C289.093 419.32 289.293 419.4 289.433 419.56C289.573 419.72 289.633 419.935 289.613 420.205L289.283 426.7C289.273 426.88 289.228 427.015 289.148 427.105C289.068 427.185 288.963 427.225 288.833 427.225ZM288.833 430.06C288.573 430.06 288.358 429.975 288.188 429.805C288.018 429.635 287.933 429.42 287.933 429.16C287.933 428.9 288.018 428.69 288.188 428.53C288.358 428.37 288.573 428.29 288.833 428.29C289.113 428.29 289.328 428.37 289.478 428.53C289.638 428.69 289.718 428.9 289.718 429.16C289.718 429.42 289.638 429.635 289.478 429.805C289.328 429.975 289.113 430.06 288.833 430.06Z" fill="#FEF5EC"/>
<path d="M51.5 509C49.567 509 48 507.433 48 505.5C48 503.567 49.567 502 51.5 502C53.433 502 55 503.567 55 505.5C55 507.433 53.433 509 51.5 509Z" fill="#E77E42"/>
<path d="M335.5 92C337.433 92 339 90.433 339 88.5C339 86.567 337.433 85 335.5 85C333.567 85 332 86.567 332 88.5C332 90.433 333.567 92 335.5 92Z" fill="#1BEAFF"/>
<path d="M77.5 300C75.567 300 74 298.433 74 296.5C74 294.567 75.567 293 77.5 293C79.433 293 81 294.567 81 296.5C81 298.433 79.433 300 77.5 300Z" fill="#E77E42"/>
<path d="M311.5 700C313.433 700 315 698.433 315 696.5C315 694.567 313.433 693 311.5 693C309.567 693 308 694.567 308 696.5C308 698.433 309.567 700 311.5 700Z" fill="#E77E42"/>
<path d="M192.5 83C193.881 83 195 81.8807 195 80.5C195 79.1193 193.881 78 192.5 78C191.119 78 190 79.1193 190 80.5C190 81.8807 191.119 83 192.5 83Z" fill="white"/>
<path d="M307.5 278C306.119 278 305 276.881 305 275.5C305 274.119 306.119 273 307.5 273C308.881 273 310 274.119 310 275.5C310 276.881 308.881 278 307.5 278Z" fill="white"/>
<path d="M81.5 678C82.8807 678 84 676.881 84 675.5C84 674.119 82.8807 673 81.5 673C80.1193 673 79 674.119 79 675.5C79 676.881 80.1193 678 81.5 678Z" fill="white"/>
<path d="M271.5 75C272.881 75 274 73.8807 274 72.5C274 71.1193 272.881 70 271.5 70C270.119 70 269 71.1193 269 72.5C269 73.8807 270.119 75 271.5 75Z" fill="white"/>
<path d="M123.5 258C122.119 258 121 256.881 121 255.5C121 254.119 122.119 253 123.5 253C124.881 253 126 254.119 126 255.5C126 256.881 124.881 258 123.5 258Z" fill="white"/>
<path d="M301.5 172C302.881 172 304 170.881 304 169.5C304 168.119 302.881 167 301.5 167C300.119 167 299 168.119 299 169.5C299 170.881 300.119 172 301.5 172Z" fill="white"/>
<path d="M29.5 346C28.1193 346 27 344.881 27 343.5C27 342.119 28.1193 341 29.5 341C30.8807 341 32 342.119 32 343.5C32 344.881 30.8807 346 29.5 346Z" fill="white"/>
<path d="M226.5 157C228.433 157 230 155.433 230 153.5C230 151.567 228.433 150 226.5 150C224.567 150 223 151.567 223 153.5C223 155.433 224.567 157 226.5 157Z" fill="#E77E42"/>
<path d="M148.5 646C146.567 646 145 644.433 145 642.5C145 640.567 146.567 639 148.5 639C150.433 639 152 640.567 152 642.5C152 644.433 150.433 646 148.5 646Z" fill="#E77E42"/>
<path d="M42.5 185C44.433 185 46 183.433 46 181.5C46 179.567 44.433 178 42.5 178C40.567 178 39 179.567 39 181.5C39 183.433 40.567 185 42.5 185Z" fill="#1BEAFF"/>
<path d="M36.5 775C38.433 775 40 773.433 40 771.5C40 769.567 38.433 768 36.5 768C34.567 768 33 769.567 33 771.5C33 773.433 34.567 775 36.5 775Z" fill="#1BEAFF"/>
<path d="M225.5 238C226.881 238 228 236.881 228 235.5C228 234.119 226.881 233 225.5 233C224.119 233 223 234.119 223 235.5C223 236.881 224.119 238 225.5 238Z" fill="#1BEAFF"/>
<path d="M119 83C119.552 83 120 82.5523 120 82C120 81.4477 119.552 81 119 81C118.448 81 118 81.4477 118 82C118 82.5523 118.448 83 119 83Z" fill="white"/>
<path d="M298 345C297.448 345 297 344.552 297 344C297 343.448 297.448 343 298 343C298.552 343 299 343.448 299 344C299 344.552 298.552 345 298 345Z" fill="white"/>
<path d="M91 745C91.5523 745 92 744.552 92 744C92 743.448 91.5523 743 91 743C90.4477 743 90 743.448 90 744C90 744.552 90.4477 745 91 745Z" fill="white"/>
<path d="M212 22C212.552 22 213 21.5523 213 21C213 20.4477 212.552 20 212 20C211.448 20 211 20.4477 211 21C211 21.5523 211.448 22 212 22Z" fill="white"/>
<path d="M371 422C370.448 422 370 421.552 370 421C370 420.448 370.448 420 371 420C371.552 420 372 420.448 372 421C372 421.552 371.552 422 371 422Z" fill="white"/>
<path d="M300 738C300.552 738 301 737.552 301 737C301 736.448 300.552 736 300 736C299.448 736 299 736.448 299 737C299 737.552 299.448 738 300 738Z" fill="white"/>
<path d="M362 372C361.448 372 361 371.552 361 371C361 370.448 361.448 370 362 370C362.552 370 363 370.448 363 371C363 371.552 362.552 372 362 372Z" fill="white"/>
<path d="M255 604C254.448 604 254 603.552 254 603C254 602.448 254.448 602 255 602C255.552 602 256 602.448 256 603C256 603.552 255.552 604 255 604Z" fill="white"/>
<path d="M163 243C163.552 243 164 242.552 164 242C164 241.448 163.552 241 163 241C162.448 241 162 241.448 162 242C162 242.552 162.448 243 163 243Z" fill="white"/>
<path d="M226 643C225.448 643 225 642.552 225 642C225 641.448 225.448 641 226 641C226.552 641 227 641.448 227 642C227 642.552 226.552 643 226 643Z" fill="white"/>
<path d="M178 232C178.552 232 179 231.552 179 231C179 230.448 178.552 230 178 230C177.448 230 177 230.448 177 231C177 231.552 177.448 232 178 232Z" fill="white"/>
<path d="M211 632C210.448 632 210 631.552 210 631C210 630.448 210.448 630 211 630C211.552 630 212 630.448 212 631C212 631.552 211.552 632 211 632Z" fill="white"/>
<path d="M77 148C77.5523 148 78 147.552 78 147C78 146.448 77.5523 146 77 146C76.4477 146 76 146.448 76 147C76 147.552 76.4477 148 77 148Z" fill="white"/>
<path d="M356 548C355.448 548 355 547.552 355 547C355 546.448 355.448 546 356 546C356.552 546 357 546.448 357 547C357 547.552 356.552 548 356 548Z" fill="white"/>
<path d="M81 533C80.4477 533 80 532.552 80 532C80 531.448 80.4477 531 81 531C81.5523 531 82 531.448 82 532C82 532.552 81.5523 533 81 533Z" fill="white"/>
<path d="M9 587C8.44772 587 8 586.552 8 586C8 585.448 8.44772 585 9 585C9.55228 585 10 585.448 10 586C10 586.552 9.55228 587 9 587Z" fill="white"/>
<path d="M168 279C167.448 279 167 278.552 167 278C167 277.448 167.448 277 168 277C168.552 277 169 277.448 169 278C169 278.552 168.552 279 168 279Z" fill="white"/>
<path d="M246 202C246.552 202 247 201.552 247 201C247 200.448 246.552 200 246 200C245.448 200 245 200.448 245 201C245 201.552 245.448 202 246 202Z" fill="white"/>
<path d="M143 602C142.448 602 142 601.552 142 601C142 600.448 142.448 600 143 600C143.552 600 144 600.448 144 601C144 601.552 143.552 602 143 602Z" fill="white"/>
<path d="M136 401C135.448 401 135 400.552 135 400C135 399.448 135.448 399 136 399C136.552 399 137 399.448 137 400C137 400.552 136.552 401 136 401Z" fill="white"/>
<path d="M167 397C166.448 397 166 396.552 166 396C166 395.448 166.448 395 167 395C167.552 395 168 395.448 168 396C168 396.552 167.552 397 167 397Z" fill="white"/>
<path d="M222 797C222.552 797 223 796.552 223 796C223 795.448 222.552 795 222 795C221.448 795 221 795.448 221 796C221 796.552 221.448 797 222 797Z" fill="white"/>
<path d="M267 399C266.448 399 266 398.552 266 398C266 397.448 266.448 397 267 397C267.552 397 268 397.448 268 398C268 398.552 267.552 399 267 399Z" fill="white"/>
<path d="M377 339C376.448 339 376 338.552 376 338C376 337.448 376.448 337 377 337C377.552 337 378 337.448 378 338C378 338.552 377.552 339 377 339Z" fill="white"/>
<path d="M387 321C386.448 321 386 320.552 386 320C386 319.448 386.448 319 387 319C387.552 319 388 319.448 388 320C388 320.552 387.552 321 387 321Z" fill="white"/>
<path d="M135 350C134.448 350 134 349.552 134 349C134 348.448 134.448 348 135 348C135.552 348 136 348.448 136 349C136 349.552 135.552 350 135 350Z" fill="white"/>
<path d="M234 352C233.448 352 233 351.552 233 351C233 350.448 233.448 350 234 350C234.552 350 235 350.448 235 351C235 351.552 234.552 352 234 352Z" fill="white"/>
<path d="M79 66C79.5523 66 80 65.5523 80 65C80 64.4477 79.5523 64 79 64C78.4477 64 78 64.4477 78 65C78 65.5523 78.4477 66 79 66Z" fill="white"/>
<path d="M77 206C77.5523 206 78 205.552 78 205C78 204.448 77.5523 204 77 204C76.4477 204 76 204.448 76 205C76 205.552 76.4477 206 77 206Z" fill="white"/>
<path d="M312 606C311.448 606 311 605.552 311 605C311 604.448 311.448 604 312 604C312.552 604 313 604.448 313 605C313 605.552 312.552 606 312 606Z" fill="white"/>
<path d="M250 418C249.448 418 249 417.552 249 417C249 416.448 249.448 416 250 416C250.552 416 251 416.448 251 417C251 417.552 250.552 418 250 418Z" fill="white"/>
<path d="M90 797C90.5523 797 91 796.552 91 796C91 795.448 90.5523 795 90 795C89.4477 795 89 795.448 89 796C89 796.552 89.4477 797 90 797Z" fill="white"/>
<path d="M87 723C87.5523 723 88 722.552 88 722C88 721.448 87.5523 721 87 721C86.4477 721 86 721.448 86 722C86 722.552 86.4477 723 87 723Z" fill="white"/>
<path d="M330 296C329.448 296 329 295.552 329 295C329 294.448 329.448 294 330 294C330.552 294 331 294.448 331 295C331 295.552 330.552 296 330 296Z" fill="white"/>
<path d="M230 56C230.552 56 231 55.5523 231 55C231 54.4477 230.552 54 230 54C229.448 54 229 54.4477 229 55C229 55.5523 229.448 56 230 56Z" fill="white"/>
<path d="M270 120C270.552 120 271 119.552 271 119C271 118.448 270.552 118 270 118C269.448 118 269 118.448 269 119C269 119.552 269.448 120 270 120Z" fill="white"/>
<path d="M140 527C139.448 527 139 526.552 139 526C139 525.448 139.448 525 140 525C140.552 525 141 525.448 141 526C141 526.552 140.552 527 140 527Z" fill="white"/>
<path d="M125 303C124.448 303 124 302.552 124 302C124 301.448 124.448 301 125 301C125.552 301 126 301.448 126 302C126 302.552 125.552 303 125 303Z" fill="white"/>
<path d="M264 703C264.552 703 265 702.552 265 702C265 701.448 264.552 701 264 701C263.448 701 263 701.448 263 702C263 702.552 263.448 703 264 703Z" fill="white"/>
<path d="M303.5 221C304.881 221 306 219.881 306 218.5C306 217.119 304.881 216 303.5 216C302.119 216 301 217.119 301 218.5C301 219.881 302.119 221 303.5 221Z" fill="white"/>
<path d="M66.5 617C65.1193 617 64 615.881 64 614.5C64 613.119 65.1193 612 66.5 612C67.8807 612 69 613.119 69 614.5C69 615.881 67.8807 617 66.5 617Z" fill="white"/>
<path d="M158 122C158.552 122 159 121.552 159 121C159 120.448 158.552 120 158 120C157.448 120 157 120.448 157 121C157 121.552 157.448 122 158 122Z" fill="white"/>
<path d="M231 522C230.448 522 230 521.552 230 521C230 520.448 230.448 520 231 520C231.552 520 232 520.448 232 521C232 521.552 231.552 522 231 522Z" fill="white"/>
<path d="M227 289C226.448 289 226 288.552 226 288C226 287.448 226.448 287 227 287C227.552 287 228 287.448 228 288C228 288.552 227.552 289 227 289Z" fill="white"/>
<path d="M199 164C199.552 164 200 163.552 200 163C200 162.448 199.552 162 199 162C198.448 162 198 162.448 198 163C198 163.552 198.448 164 199 164Z" fill="white"/>
<path d="M196 564C195.448 564 195 563.552 195 563C195 562.448 195.448 562 196 562C196.552 562 197 562.448 197 563C197 563.552 196.552 564 196 564Z" fill="white"/>
<path d="M202 347C201.448 347 201 346.552 201 346C201 345.448 201.448 345 202 345C202.552 345 203 345.448 203 346C203 346.552 202.552 347 202 347Z" fill="white"/>
<path d="M193 747C193.552 747 194 746.552 194 746C194 745.448 193.552 745 193 745C192.448 745 192 745.448 192 746C192 746.552 192.448 747 193 747Z" fill="white"/>
<path d="M353 37C353.552 37 354 36.5523 354 36C354 35.4477 353.552 35 353 35C352.448 35 352 35.4477 352 36C352 36.5523 352.448 37 353 37Z" fill="white"/>
<path d="M375 108C375.552 108 376 107.552 376 107C376 106.448 375.552 106 375 106C374.448 106 374 106.448 374 107C374 107.552 374.448 108 375 108Z" fill="white"/>
<path d="M363 691C363.552 691 364 690.552 364 690C364 689.448 363.552 689 363 689C362.448 689 362 689.448 362 690C362 690.552 362.448 691 363 691Z" fill="white"/>
<path d="M235 489C234.448 489 234 488.552 234 488C234 487.448 234.448 487 235 487C235.552 487 236 487.448 236 488C236 488.552 235.552 489 235 489Z" fill="white"/>
<path d="M305 79C305.552 79 306 78.5523 306 78C306 77.4477 305.552 77 305 77C304.448 77 304 77.4477 304 78C304 78.5523 304.448 79 305 79Z" fill="white"/>
<path d="M56 245C55.4477 245 55 244.552 55 244C55 243.448 55.4477 243 56 243C56.5523 243 57 243.448 57 244C57 244.552 56.5523 245 56 245Z" fill="white"/>
<path d="M339 795C339.552 795 340 794.552 340 794C340 793.448 339.552 793 339 793C338.448 793 338 793.448 338 794C338 794.552 338.448 795 339 795Z" fill="white"/>
<path d="M324 185C324.552 185 325 184.552 325 184C325 183.448 324.552 183 324 183C323.448 183 323 183.448 323 184C323 184.552 323.448 185 324 185Z" fill="white"/>
<path d="M157 49C157.552 49 158 48.5523 158 48C158 47.4477 157.552 47 157 47C156.448 47 156 47.4477 156 48C156 48.5523 156.448 49 157 49Z" fill="white"/>
<path d="M147 167C147.552 167 148 166.552 148 166C148 165.448 147.552 165 147 165C146.448 165 146 165.448 146 166C146 166.552 146.448 167 147 167Z" fill="white"/>
<path d="M242 567C241.448 567 241 566.552 241 566C241 565.448 241.448 565 242 565C242.552 565 243 565.448 243 566C243 566.552 242.552 567 242 567Z" fill="white"/>
<path d="M292 24C292.552 24 293 23.5523 293 23C293 22.4477 292.552 22 292 22C291.448 22 291 22.4477 291 23C291 23.5523 291.448 24 292 24Z" fill="white"/>
<path d="M340 150C340.552 150 341 149.552 341 149C341 148.448 340.552 148 340 148C339.448 148 339 148.448 339 149C339 149.552 339.448 150 340 150Z" fill="white"/>
<path d="M100 576C99.4477 576 99 575.552 99 575C99 574.448 99.4477 574 100 574C100.552 574 101 574.448 101 575C101 575.552 100.552 576 100 576Z" fill="white"/>
<path d="M55 333C54.4477 333 54 332.552 54 332C54 331.448 54.4477 331 55 331C55.5523 331 56 331.448 56 332C56 332.552 55.5523 333 55 333Z" fill="white"/>
</g>
</g>
<defs>
<clipPath id="clip0_198_1580">
<rect width="390" height="856" fill="white"/>
</clipPath>
</defs>
</svg>
