<svg width="398" height="864" viewBox="0 0 398 864" fill="none" xmlns="http://www.w3.org/2000/svg">
<g filter="url(#filter0_d_198_1748)">
<rect x="4" width="390" height="856" rx="30" fill="#FEF5EC"/>
<circle cx="3.5" cy="3.5" r="3.5" transform="matrix(-1 0 0 1 59 502)" fill="#E77E42"/>
<circle cx="339.5" cy="88.5" r="3.5" fill="#1BEAFF"/>
<circle cx="3.5" cy="3.5" r="3.5" transform="matrix(-1 0 0 1 85 293)" fill="#E77E42"/>
<circle cx="315.5" cy="696.5" r="3.5" fill="#E77E42"/>
<circle cx="196.5" cy="80.5" r="2.5" fill="white"/>
<circle cx="2.5" cy="2.5" r="2.5" transform="matrix(-1 0 0 1 314 273)" fill="white"/>
<circle cx="85.5" cy="675.5" r="2.5" fill="white"/>
<circle cx="275.5" cy="72.5" r="2.5" fill="white"/>
<circle cx="2.5" cy="2.5" r="2.5" transform="matrix(-1 0 0 1 130 253)" fill="white"/>
<circle cx="305.5" cy="169.5" r="2.5" fill="white"/>
<circle cx="2.5" cy="2.5" r="2.5" transform="matrix(-1 0 0 1 36 341)" fill="white"/>
<circle cx="230.5" cy="153.5" r="3.5" fill="#E77E42"/>
<circle cx="3.5" cy="3.5" r="3.5" transform="matrix(-1 0 0 1 156 639)" fill="#E77E42"/>
<circle cx="46.5" cy="181.5" r="3.5" fill="#1BEAFF"/>
<circle cx="40.5" cy="771.5" r="3.5" fill="#1BEAFF"/>
<circle cx="229.5" cy="235.5" r="2.5" fill="#1BEAFF"/>
<circle cx="123" cy="82" r="1" fill="white"/>
<circle cx="1" cy="1" r="1" transform="matrix(-1 0 0 1 303 343)" fill="white"/>
<circle cx="95" cy="744" r="1" fill="white"/>
<circle cx="216" cy="21" r="1" fill="white"/>
<circle cx="1" cy="1" r="1" transform="matrix(-1 0 0 1 376 420)" fill="white"/>
<circle cx="304" cy="737" r="1" fill="white"/>
<circle cx="1" cy="1" r="1" transform="matrix(-1 0 0 1 367 370)" fill="white"/>
<circle cx="1" cy="1" r="1" transform="matrix(-1 0 0 1 260 602)" fill="white"/>
<circle cx="167" cy="242" r="1" fill="white"/>
<circle cx="1" cy="1" r="1" transform="matrix(-1 0 0 1 231 641)" fill="white"/>
<circle cx="182" cy="231" r="1" fill="white"/>
<circle cx="1" cy="1" r="1" transform="matrix(-1 0 0 1 216 630)" fill="white"/>
<circle cx="81" cy="147" r="1" fill="white"/>
<circle cx="1" cy="1" r="1" transform="matrix(-1 0 0 1 361 546)" fill="white"/>
<circle cx="1" cy="1" r="1" transform="matrix(-1 0 0 1 86 531)" fill="white"/>
<circle cx="1" cy="1" r="1" transform="matrix(-1 0 0 1 14 585)" fill="white"/>
<circle cx="1" cy="1" r="1" transform="matrix(-1 0 0 1 173 277)" fill="white"/>
<circle cx="250" cy="201" r="1" fill="white"/>
<circle cx="1" cy="1" r="1" transform="matrix(-1 0 0 1 148 600)" fill="white"/>
<circle cx="1" cy="1" r="1" transform="matrix(-1 0 0 1 141 399)" fill="white"/>
<circle cx="1" cy="1" r="1" transform="matrix(-1 0 0 1 172 395)" fill="white"/>
<circle cx="226" cy="796" r="1" fill="white"/>
<circle cx="1" cy="1" r="1" transform="matrix(-1 0 0 1 272 397)" fill="white"/>
<circle cx="1" cy="1" r="1" transform="matrix(-1 0 0 1 382 337)" fill="white"/>
<circle cx="1" cy="1" r="1" transform="matrix(-1 0 0 1 392 319)" fill="white"/>
<circle cx="1" cy="1" r="1" transform="matrix(-1 0 0 1 140 348)" fill="white"/>
<circle cx="1" cy="1" r="1" transform="matrix(-1 0 0 1 239 350)" fill="white"/>
<circle cx="83" cy="65" r="1" fill="white"/>
<circle cx="81" cy="205" r="1" fill="white"/>
<circle cx="1" cy="1" r="1" transform="matrix(-1 0 0 1 317 604)" fill="white"/>
<circle cx="1" cy="1" r="1" transform="matrix(-1 0 0 1 255 416)" fill="white"/>
<circle cx="94" cy="796" r="1" fill="white"/>
<circle cx="91" cy="722" r="1" fill="white"/>
<circle cx="1" cy="1" r="1" transform="matrix(-1 0 0 1 335 294)" fill="white"/>
<circle cx="234" cy="55" r="1" fill="white"/>
<circle cx="274" cy="119" r="1" fill="white"/>
<circle cx="1" cy="1" r="1" transform="matrix(-1 0 0 1 145 525)" fill="white"/>
<circle cx="1" cy="1" r="1" transform="matrix(-1 0 0 1 130 301)" fill="white"/>
<circle cx="268" cy="702" r="1" fill="white"/>
<circle cx="307.5" cy="218.5" r="2.5" fill="white"/>
<circle cx="2.5" cy="2.5" r="2.5" transform="matrix(-1 0 0 1 73 612)" fill="white"/>
<circle cx="162" cy="121" r="1" fill="white"/>
<circle cx="1" cy="1" r="1" transform="matrix(-1 0 0 1 236 520)" fill="white"/>
<circle cx="1" cy="1" r="1" transform="matrix(-1 0 0 1 232 287)" fill="white"/>
<circle cx="203" cy="163" r="1" fill="white"/>
<circle cx="1" cy="1" r="1" transform="matrix(-1 0 0 1 201 562)" fill="white"/>
<circle cx="1" cy="1" r="1" transform="matrix(-1 0 0 1 207 345)" fill="white"/>
<circle cx="197" cy="746" r="1" fill="white"/>
<circle cx="357" cy="36" r="1" fill="white"/>
<circle cx="379" cy="107" r="1" fill="white"/>
<circle cx="367" cy="690" r="1" fill="white"/>
<circle cx="1" cy="1" r="1" transform="matrix(-1 0 0 1 240 487)" fill="white"/>
<circle cx="309" cy="78" r="1" fill="white"/>
<circle cx="1" cy="1" r="1" transform="matrix(-1 0 0 1 61 243)" fill="white"/>
<circle cx="343" cy="794" r="1" fill="white"/>
<circle cx="328" cy="184" r="1" fill="white"/>
<circle cx="161" cy="48" r="1" fill="white"/>
<circle cx="151" cy="166" r="1" fill="white"/>
<circle cx="1" cy="1" r="1" transform="matrix(-1 0 0 1 247 565)" fill="white"/>
<circle cx="296" cy="23" r="1" fill="white"/>
<circle cx="344" cy="149" r="1" fill="white"/>
<circle cx="1" cy="1" r="1" transform="matrix(-1 0 0 1 105 574)" fill="white"/>
<circle cx="1" cy="1" r="1" transform="matrix(-1 0 0 1 60 331)" fill="white"/>
<circle cx="3.5" cy="3.5" r="3.5" transform="matrix(-1 0 0 1 59 502)" fill="#E77E42"/>
<circle cx="339.5" cy="88.5" r="3.5" fill="#1BEAFF"/>
<circle cx="3.5" cy="3.5" r="3.5" transform="matrix(-1 0 0 1 85 293)" fill="#E77E42"/>
<circle cx="315.5" cy="696.5" r="3.5" fill="#E77E42"/>
<circle cx="196.5" cy="80.5" r="2.5" fill="white"/>
<circle cx="2.5" cy="2.5" r="2.5" transform="matrix(-1 0 0 1 314 273)" fill="white"/>
<circle cx="85.5" cy="675.5" r="2.5" fill="white"/>
<circle cx="275.5" cy="72.5" r="2.5" fill="white"/>
<circle cx="2.5" cy="2.5" r="2.5" transform="matrix(-1 0 0 1 130 253)" fill="white"/>
<circle cx="305.5" cy="169.5" r="2.5" fill="white"/>
<circle cx="2.5" cy="2.5" r="2.5" transform="matrix(-1 0 0 1 36 341)" fill="white"/>
<circle cx="230.5" cy="153.5" r="3.5" fill="#E77E42"/>
<circle cx="3.5" cy="3.5" r="3.5" transform="matrix(-1 0 0 1 156 639)" fill="#E77E42"/>
<circle cx="46.5" cy="181.5" r="3.5" fill="#1BEAFF"/>
<circle cx="40.5" cy="771.5" r="3.5" fill="#1BEAFF"/>
<circle cx="229.5" cy="235.5" r="2.5" fill="#1BEAFF"/>
<circle cx="123" cy="82" r="1" fill="white"/>
<circle cx="1" cy="1" r="1" transform="matrix(-1 0 0 1 303 343)" fill="white"/>
<circle cx="95" cy="744" r="1" fill="white"/>
<circle cx="216" cy="21" r="1" fill="white"/>
<circle cx="1" cy="1" r="1" transform="matrix(-1 0 0 1 376 420)" fill="white"/>
<circle cx="304" cy="737" r="1" fill="white"/>
<circle cx="1" cy="1" r="1" transform="matrix(-1 0 0 1 367 370)" fill="white"/>
<circle cx="1" cy="1" r="1" transform="matrix(-1 0 0 1 260 602)" fill="white"/>
<circle cx="167" cy="242" r="1" fill="white"/>
<circle cx="1" cy="1" r="1" transform="matrix(-1 0 0 1 231 641)" fill="white"/>
<circle cx="182" cy="231" r="1" fill="white"/>
<circle cx="1" cy="1" r="1" transform="matrix(-1 0 0 1 216 630)" fill="white"/>
<circle cx="81" cy="147" r="1" fill="white"/>
<circle cx="1" cy="1" r="1" transform="matrix(-1 0 0 1 361 546)" fill="white"/>
<circle cx="1" cy="1" r="1" transform="matrix(-1 0 0 1 86 531)" fill="white"/>
<circle cx="1" cy="1" r="1" transform="matrix(-1 0 0 1 14 585)" fill="white"/>
<circle cx="1" cy="1" r="1" transform="matrix(-1 0 0 1 173 277)" fill="white"/>
<circle cx="250" cy="201" r="1" fill="white"/>
<circle cx="1" cy="1" r="1" transform="matrix(-1 0 0 1 148 600)" fill="white"/>
<circle cx="1" cy="1" r="1" transform="matrix(-1 0 0 1 141 399)" fill="white"/>
<circle cx="1" cy="1" r="1" transform="matrix(-1 0 0 1 172 395)" fill="white"/>
<circle cx="226" cy="796" r="1" fill="white"/>
<circle cx="1" cy="1" r="1" transform="matrix(-1 0 0 1 272 397)" fill="white"/>
<circle cx="1" cy="1" r="1" transform="matrix(-1 0 0 1 382 337)" fill="white"/>
<circle cx="1" cy="1" r="1" transform="matrix(-1 0 0 1 392 319)" fill="white"/>
<circle cx="1" cy="1" r="1" transform="matrix(-1 0 0 1 140 348)" fill="white"/>
<circle cx="1" cy="1" r="1" transform="matrix(-1 0 0 1 239 350)" fill="white"/>
<circle cx="83" cy="65" r="1" fill="white"/>
<circle cx="81" cy="205" r="1" fill="white"/>
<circle cx="1" cy="1" r="1" transform="matrix(-1 0 0 1 317 604)" fill="white"/>
<circle cx="1" cy="1" r="1" transform="matrix(-1 0 0 1 255 416)" fill="white"/>
<circle cx="94" cy="796" r="1" fill="white"/>
<circle cx="91" cy="722" r="1" fill="white"/>
<circle cx="1" cy="1" r="1" transform="matrix(-1 0 0 1 335 294)" fill="white"/>
<circle cx="234" cy="55" r="1" fill="white"/>
<circle cx="274" cy="119" r="1" fill="white"/>
<circle cx="1" cy="1" r="1" transform="matrix(-1 0 0 1 145 525)" fill="white"/>
<circle cx="1" cy="1" r="1" transform="matrix(-1 0 0 1 130 301)" fill="white"/>
<circle cx="268" cy="702" r="1" fill="white"/>
<circle cx="307.5" cy="218.5" r="2.5" fill="white"/>
<circle cx="2.5" cy="2.5" r="2.5" transform="matrix(-1 0 0 1 73 612)" fill="white"/>
<circle cx="162" cy="121" r="1" fill="white"/>
<circle cx="1" cy="1" r="1" transform="matrix(-1 0 0 1 236 520)" fill="white"/>
<circle cx="1" cy="1" r="1" transform="matrix(-1 0 0 1 232 287)" fill="white"/>
<circle cx="203" cy="163" r="1" fill="white"/>
<circle cx="1" cy="1" r="1" transform="matrix(-1 0 0 1 201 562)" fill="white"/>
<circle cx="1" cy="1" r="1" transform="matrix(-1 0 0 1 207 345)" fill="white"/>
<circle cx="197" cy="746" r="1" fill="white"/>
<circle cx="357" cy="36" r="1" fill="white"/>
<circle cx="379" cy="107" r="1" fill="white"/>
<circle cx="367" cy="690" r="1" fill="white"/>
<circle cx="1" cy="1" r="1" transform="matrix(-1 0 0 1 240 487)" fill="white"/>
<circle cx="309" cy="78" r="1" fill="white"/>
<circle cx="1" cy="1" r="1" transform="matrix(-1 0 0 1 61 243)" fill="white"/>
<circle cx="343" cy="794" r="1" fill="white"/>
<circle cx="328" cy="184" r="1" fill="white"/>
<circle cx="161" cy="48" r="1" fill="white"/>
<circle cx="151" cy="166" r="1" fill="white"/>
<circle cx="1" cy="1" r="1" transform="matrix(-1 0 0 1 247 565)" fill="white"/>
<circle cx="296" cy="23" r="1" fill="white"/>
<circle cx="344" cy="149" r="1" fill="white"/>
<circle cx="1" cy="1" r="1" transform="matrix(-1 0 0 1 105 574)" fill="white"/>
<circle cx="1" cy="1" r="1" transform="matrix(-1 0 0 1 60 331)" fill="white"/>
</g>
<defs>
<filter id="filter0_d_198_1748" x="0" y="0" width="398" height="864" filterUnits="userSpaceOnUse" color-interpolation-filters="sRGB">
<feFlood flood-opacity="0" result="BackgroundImageFix"/>
<feColorMatrix in="SourceAlpha" type="matrix" values="0 0 0 0 0 0 0 0 0 0 0 0 0 0 0 0 0 0 127 0" result="hardAlpha"/>
<feOffset dy="4"/>
<feGaussianBlur stdDeviation="2"/>
<feComposite in2="hardAlpha" operator="out"/>
<feColorMatrix type="matrix" values="0 0 0 0 0 0 0 0 0 0 0 0 0 0 0 0 0 0 0.25 0"/>
<feBlend mode="normal" in2="BackgroundImageFix" result="effect1_dropShadow_198_1748"/>
<feBlend mode="normal" in="SourceGraphic" in2="effect1_dropShadow_198_1748" result="shape"/>
</filter>
</defs>
</svg>
